<mxfile host="Electron" modified="2024-05-13T01:40:41.797Z" agent="Mozilla/5.0 (Windows NT 10.0; Win64; x64) AppleWebKit/537.36 (KHTML, like Gecko) draw.io/24.2.5 Chrome/120.0.6099.109 Electron/28.1.0 Safari/537.36" etag="lE0jul0np83tehAXiluG" version="24.2.5" type="device">
  <diagram name="Page-1" id="KZN-zyBD-0XipZeYQRDT">
    <mxGraphModel dx="193" dy="112" grid="1" gridSize="10" guides="1" tooltips="1" connect="1" arrows="1" fold="1" page="1" pageScale="1" pageWidth="200" pageHeight="100" math="0" shadow="0">
      <root>
        <mxCell id="0" />
        <mxCell id="1" parent="0" />
        <mxCell id="9eh16xiQdjSHdPkHuFP6-377" value="" style="group;imageAspect=0;absoluteArcSize=0;container=1;movable=1;resizable=1;rotatable=1;deletable=1;editable=1;locked=0;connectable=1;" parent="1" vertex="1" connectable="0">
          <mxGeometry x="20" y="28" width="160" height="45" as="geometry" />
        </mxCell>
        <mxCell id="9eh16xiQdjSHdPkHuFP6-378" value="" style="rounded=0;whiteSpace=wrap;html=1;strokeColor=#aaaaaa;fillColor=#bfbfbf;strokeWidth=0.5;container=1;part=1;movable=1;resizable=1;rotatable=1;deletable=1;editable=1;locked=0;connectable=1;" parent="9eh16xiQdjSHdPkHuFP6-377" vertex="1">
          <mxGeometry width="160" height="45" as="geometry" />
        </mxCell>
        <mxCell id="9eh16xiQdjSHdPkHuFP6-379" value="" style="rounded=0;whiteSpace=wrap;html=1;strokeColor=#aaaaaa;fillColor=#222222;strokeWidth=0.5;movable=1;resizable=1;rotatable=1;deletable=1;editable=1;locked=0;connectable=1;" parent="9eh16xiQdjSHdPkHuFP6-377" vertex="1">
          <mxGeometry x="4" width="152" height="45" as="geometry" />
        </mxCell>
        <mxCell id="9eh16xiQdjSHdPkHuFP6-380" value="" style="group;movable=1;resizable=1;rotatable=1;deletable=1;editable=1;locked=0;connectable=1;" parent="9eh16xiQdjSHdPkHuFP6-377" vertex="1" connectable="0">
          <mxGeometry x="5.599999999999909" y="6.599999999999994" width="36" height="8" as="geometry" />
        </mxCell>
        <mxCell id="9eh16xiQdjSHdPkHuFP6-381" value="" style="rounded=0;whiteSpace=wrap;html=1;strokeColor=none;fillColor=#333333;strokeWidth=0.5;movable=1;resizable=1;rotatable=1;deletable=1;editable=1;locked=0;connectable=1;" parent="9eh16xiQdjSHdPkHuFP6-380" vertex="1">
          <mxGeometry width="36" height="8" as="geometry" />
        </mxCell>
        <mxCell id="9eh16xiQdjSHdPkHuFP6-382" value="" style="rounded=0;whiteSpace=wrap;html=1;strokeColor=#222222;fillColor=#222222;strokeWidth=0.5;movable=1;resizable=1;rotatable=1;deletable=1;editable=1;locked=0;connectable=1;" parent="9eh16xiQdjSHdPkHuFP6-380" vertex="1">
          <mxGeometry x="1" y="1" width="32.5" height="6" as="geometry" />
        </mxCell>
        <mxCell id="9eh16xiQdjSHdPkHuFP6-383" value="" style="rounded=1;whiteSpace=wrap;html=1;strokeColor=none;rotation=-90;fillColor=#60a917;fontColor=#ffffff;movable=1;resizable=1;rotatable=1;deletable=1;editable=1;locked=0;connectable=1;" parent="9eh16xiQdjSHdPkHuFP6-380" vertex="1">
          <mxGeometry x="34.09999999999991" y="6" width="1.5" height="1" as="geometry" />
        </mxCell>
        <mxCell id="9eh16xiQdjSHdPkHuFP6-384" value="" style="rounded=1;whiteSpace=wrap;html=1;strokeColor=none;rotation=-90;fillColor=#0050ef;fontColor=#ffffff;movable=1;resizable=1;rotatable=1;deletable=1;editable=1;locked=0;connectable=1;" parent="9eh16xiQdjSHdPkHuFP6-380" vertex="1">
          <mxGeometry x="34.09999999999991" y="3.5999999999999943" width="1.5" height="1" as="geometry" />
        </mxCell>
        <mxCell id="9eh16xiQdjSHdPkHuFP6-385" value="" style="rounded=0;whiteSpace=wrap;html=1;strokeColor=none;fillColor=#333333;strokeWidth=0.5;movable=1;resizable=1;rotatable=1;deletable=1;editable=1;locked=0;connectable=1;" parent="9eh16xiQdjSHdPkHuFP6-380" vertex="1">
          <mxGeometry x="1" y="1" width="25.5" height="6" as="geometry" />
        </mxCell>
        <mxCell id="9eh16xiQdjSHdPkHuFP6-386" value="" style="rounded=1;whiteSpace=wrap;html=1;strokeColor=none;fillColor=#0050ef;strokeWidth=0.5;fontColor=#ffffff;glass=0;movable=1;resizable=1;rotatable=1;deletable=1;editable=1;locked=0;connectable=1;" parent="9eh16xiQdjSHdPkHuFP6-380" vertex="1">
          <mxGeometry x="28.5" y="2" width="3" height="4" as="geometry" />
        </mxCell>
        <mxCell id="9eh16xiQdjSHdPkHuFP6-387" value="" style="rounded=0;whiteSpace=wrap;html=1;strokeColor=none;fillColor=#333333;strokeWidth=0.5;movable=1;resizable=1;rotatable=1;deletable=1;editable=1;locked=0;connectable=1;" parent="9eh16xiQdjSHdPkHuFP6-380" vertex="1">
          <mxGeometry x="26.5" y="1" width="3.5" height="6" as="geometry" />
        </mxCell>
        <mxCell id="9eh16xiQdjSHdPkHuFP6-388" value="" style="rounded=0;whiteSpace=wrap;html=1;strokeColor=#333333;fillColor=#222222;strokeWidth=0.2;movable=1;resizable=1;rotatable=1;deletable=1;editable=1;locked=0;connectable=1;" parent="9eh16xiQdjSHdPkHuFP6-380" vertex="1">
          <mxGeometry x="4.5" y="1.6999999999999886" width="22" height="1" as="geometry" />
        </mxCell>
        <mxCell id="9eh16xiQdjSHdPkHuFP6-389" value="" style="rounded=0;whiteSpace=wrap;html=1;strokeColor=#333333;fillColor=#222222;strokeWidth=0.2;movable=1;resizable=1;rotatable=1;deletable=1;editable=1;locked=0;connectable=1;" parent="9eh16xiQdjSHdPkHuFP6-380" vertex="1">
          <mxGeometry x="4.5" y="2.8499999999999943" width="22" height="1" as="geometry" />
        </mxCell>
        <mxCell id="9eh16xiQdjSHdPkHuFP6-390" value="" style="rounded=0;whiteSpace=wrap;html=1;strokeColor=#333333;fillColor=#222222;strokeWidth=0.2;movable=1;resizable=1;rotatable=1;deletable=1;editable=1;locked=0;connectable=1;" parent="9eh16xiQdjSHdPkHuFP6-380" vertex="1">
          <mxGeometry x="4.5" y="4.099999999999994" width="22" height="1" as="geometry" />
        </mxCell>
        <mxCell id="9eh16xiQdjSHdPkHuFP6-391" value="" style="rounded=0;whiteSpace=wrap;html=1;strokeColor=#333333;fillColor=#222222;strokeWidth=0.2;movable=1;resizable=1;rotatable=1;deletable=1;editable=1;locked=0;connectable=1;" parent="9eh16xiQdjSHdPkHuFP6-380" vertex="1">
          <mxGeometry x="4.5" y="5.299999999999983" width="22" height="1" as="geometry" />
        </mxCell>
        <mxCell id="9eh16xiQdjSHdPkHuFP6-392" value="" style="rounded=0;whiteSpace=wrap;html=1;strokeColor=none;fillColor=#333333;strokeWidth=0.5;movable=1;resizable=1;rotatable=1;deletable=1;editable=1;locked=0;connectable=1;" parent="9eh16xiQdjSHdPkHuFP6-380" vertex="1">
          <mxGeometry x="19" y="1" width="1" height="6" as="geometry" />
        </mxCell>
        <mxCell id="9eh16xiQdjSHdPkHuFP6-393" value="" style="rounded=0;whiteSpace=wrap;html=1;strokeColor=none;fillColor=#333333;strokeWidth=0.5;movable=1;resizable=1;rotatable=1;deletable=1;editable=1;locked=0;connectable=1;" parent="9eh16xiQdjSHdPkHuFP6-380" vertex="1">
          <mxGeometry x="11" y="1" width="1" height="6" as="geometry" />
        </mxCell>
        <mxCell id="9eh16xiQdjSHdPkHuFP6-394" value="" style="shape=or;whiteSpace=wrap;html=1;fillColor=#0050ef;fontColor=#ffffff;strokeColor=none;movable=1;resizable=1;rotatable=1;deletable=1;editable=1;locked=0;connectable=1;" parent="9eh16xiQdjSHdPkHuFP6-380" vertex="1">
          <mxGeometry x="31" y="2" width="1" height="4" as="geometry" />
        </mxCell>
        <mxCell id="9eh16xiQdjSHdPkHuFP6-395" value="" style="group;movable=1;resizable=1;rotatable=1;deletable=1;editable=1;locked=0;connectable=1;" parent="9eh16xiQdjSHdPkHuFP6-377" vertex="1" connectable="0">
          <mxGeometry x="43.200000000000045" y="6.599999999999994" width="36" height="8" as="geometry" />
        </mxCell>
        <mxCell id="9eh16xiQdjSHdPkHuFP6-396" value="" style="rounded=0;whiteSpace=wrap;html=1;strokeColor=none;fillColor=#333333;strokeWidth=0.5;movable=1;resizable=1;rotatable=1;deletable=1;editable=1;locked=0;connectable=1;" parent="9eh16xiQdjSHdPkHuFP6-395" vertex="1">
          <mxGeometry width="36" height="8" as="geometry" />
        </mxCell>
        <mxCell id="9eh16xiQdjSHdPkHuFP6-397" value="" style="rounded=0;whiteSpace=wrap;html=1;strokeColor=#222222;fillColor=#222222;strokeWidth=0.5;movable=1;resizable=1;rotatable=1;deletable=1;editable=1;locked=0;connectable=1;" parent="9eh16xiQdjSHdPkHuFP6-395" vertex="1">
          <mxGeometry x="1" y="1" width="32.5" height="6" as="geometry" />
        </mxCell>
        <mxCell id="9eh16xiQdjSHdPkHuFP6-398" value="" style="rounded=1;whiteSpace=wrap;html=1;strokeColor=none;rotation=-90;fillColor=#60a917;fontColor=#ffffff;movable=1;resizable=1;rotatable=1;deletable=1;editable=1;locked=0;connectable=1;" parent="9eh16xiQdjSHdPkHuFP6-395" vertex="1">
          <mxGeometry x="34.09999999999991" y="6" width="1.5" height="1" as="geometry" />
        </mxCell>
        <mxCell id="9eh16xiQdjSHdPkHuFP6-399" value="" style="rounded=1;whiteSpace=wrap;html=1;strokeColor=none;rotation=-90;fillColor=#0050ef;fontColor=#ffffff;movable=1;resizable=1;rotatable=1;deletable=1;editable=1;locked=0;connectable=1;" parent="9eh16xiQdjSHdPkHuFP6-395" vertex="1">
          <mxGeometry x="34.09999999999991" y="3.5999999999999943" width="1.5" height="1" as="geometry" />
        </mxCell>
        <mxCell id="9eh16xiQdjSHdPkHuFP6-400" value="" style="rounded=0;whiteSpace=wrap;html=1;strokeColor=none;fillColor=#333333;strokeWidth=0.5;movable=1;resizable=1;rotatable=1;deletable=1;editable=1;locked=0;connectable=1;" parent="9eh16xiQdjSHdPkHuFP6-395" vertex="1">
          <mxGeometry x="1" y="1" width="25.5" height="6" as="geometry" />
        </mxCell>
        <mxCell id="9eh16xiQdjSHdPkHuFP6-401" value="" style="rounded=1;whiteSpace=wrap;html=1;strokeColor=none;fillColor=#0050ef;strokeWidth=0.5;fontColor=#ffffff;glass=0;movable=1;resizable=1;rotatable=1;deletable=1;editable=1;locked=0;connectable=1;" parent="9eh16xiQdjSHdPkHuFP6-395" vertex="1">
          <mxGeometry x="28.5" y="2" width="3" height="4" as="geometry" />
        </mxCell>
        <mxCell id="9eh16xiQdjSHdPkHuFP6-402" value="" style="rounded=0;whiteSpace=wrap;html=1;strokeColor=none;fillColor=#333333;strokeWidth=0.5;movable=1;resizable=1;rotatable=1;deletable=1;editable=1;locked=0;connectable=1;" parent="9eh16xiQdjSHdPkHuFP6-395" vertex="1">
          <mxGeometry x="26.5" y="1" width="3.5" height="6" as="geometry" />
        </mxCell>
        <mxCell id="9eh16xiQdjSHdPkHuFP6-403" value="" style="rounded=0;whiteSpace=wrap;html=1;strokeColor=#333333;fillColor=#222222;strokeWidth=0.2;movable=1;resizable=1;rotatable=1;deletable=1;editable=1;locked=0;connectable=1;" parent="9eh16xiQdjSHdPkHuFP6-395" vertex="1">
          <mxGeometry x="4.5" y="1.6999999999999886" width="22" height="1" as="geometry" />
        </mxCell>
        <mxCell id="9eh16xiQdjSHdPkHuFP6-404" value="" style="rounded=0;whiteSpace=wrap;html=1;strokeColor=#333333;fillColor=#222222;strokeWidth=0.2;movable=1;resizable=1;rotatable=1;deletable=1;editable=1;locked=0;connectable=1;" parent="9eh16xiQdjSHdPkHuFP6-395" vertex="1">
          <mxGeometry x="4.5" y="2.8499999999999943" width="22" height="1" as="geometry" />
        </mxCell>
        <mxCell id="9eh16xiQdjSHdPkHuFP6-405" value="" style="rounded=0;whiteSpace=wrap;html=1;strokeColor=#333333;fillColor=#222222;strokeWidth=0.2;movable=1;resizable=1;rotatable=1;deletable=1;editable=1;locked=0;connectable=1;" parent="9eh16xiQdjSHdPkHuFP6-395" vertex="1">
          <mxGeometry x="4.5" y="4.099999999999994" width="22" height="1" as="geometry" />
        </mxCell>
        <mxCell id="9eh16xiQdjSHdPkHuFP6-406" value="" style="rounded=0;whiteSpace=wrap;html=1;strokeColor=#333333;fillColor=#222222;strokeWidth=0.2;movable=1;resizable=1;rotatable=1;deletable=1;editable=1;locked=0;connectable=1;" parent="9eh16xiQdjSHdPkHuFP6-395" vertex="1">
          <mxGeometry x="4.5" y="5.299999999999983" width="22" height="1" as="geometry" />
        </mxCell>
        <mxCell id="9eh16xiQdjSHdPkHuFP6-407" value="" style="rounded=0;whiteSpace=wrap;html=1;strokeColor=none;fillColor=#333333;strokeWidth=0.5;movable=1;resizable=1;rotatable=1;deletable=1;editable=1;locked=0;connectable=1;" parent="9eh16xiQdjSHdPkHuFP6-395" vertex="1">
          <mxGeometry x="19" y="1" width="1" height="6" as="geometry" />
        </mxCell>
        <mxCell id="9eh16xiQdjSHdPkHuFP6-408" value="" style="rounded=0;whiteSpace=wrap;html=1;strokeColor=none;fillColor=#333333;strokeWidth=0.5;movable=1;resizable=1;rotatable=1;deletable=1;editable=1;locked=0;connectable=1;" parent="9eh16xiQdjSHdPkHuFP6-395" vertex="1">
          <mxGeometry x="11" y="1" width="1" height="6" as="geometry" />
        </mxCell>
        <mxCell id="9eh16xiQdjSHdPkHuFP6-409" value="" style="shape=or;whiteSpace=wrap;html=1;fillColor=#0050ef;fontColor=#ffffff;strokeColor=none;movable=1;resizable=1;rotatable=1;deletable=1;editable=1;locked=0;connectable=1;" parent="9eh16xiQdjSHdPkHuFP6-395" vertex="1">
          <mxGeometry x="31" y="2" width="1" height="4" as="geometry" />
        </mxCell>
        <mxCell id="9eh16xiQdjSHdPkHuFP6-410" value="" style="group;movable=1;resizable=1;rotatable=1;deletable=1;editable=1;locked=0;connectable=1;" parent="9eh16xiQdjSHdPkHuFP6-377" vertex="1" connectable="0">
          <mxGeometry x="80.79999999999995" y="6.599999999999994" width="36" height="8" as="geometry" />
        </mxCell>
        <mxCell id="9eh16xiQdjSHdPkHuFP6-411" value="" style="rounded=0;whiteSpace=wrap;html=1;strokeColor=none;fillColor=#333333;strokeWidth=0.5;movable=1;resizable=1;rotatable=1;deletable=1;editable=1;locked=0;connectable=1;" parent="9eh16xiQdjSHdPkHuFP6-410" vertex="1">
          <mxGeometry width="36" height="8" as="geometry" />
        </mxCell>
        <mxCell id="9eh16xiQdjSHdPkHuFP6-412" value="" style="rounded=0;whiteSpace=wrap;html=1;strokeColor=#222222;fillColor=#222222;strokeWidth=0.5;movable=1;resizable=1;rotatable=1;deletable=1;editable=1;locked=0;connectable=1;" parent="9eh16xiQdjSHdPkHuFP6-410" vertex="1">
          <mxGeometry x="1" y="1" width="32.5" height="6" as="geometry" />
        </mxCell>
        <mxCell id="9eh16xiQdjSHdPkHuFP6-413" value="" style="rounded=1;whiteSpace=wrap;html=1;strokeColor=none;rotation=-90;fillColor=#60a917;fontColor=#ffffff;movable=1;resizable=1;rotatable=1;deletable=1;editable=1;locked=0;connectable=1;" parent="9eh16xiQdjSHdPkHuFP6-410" vertex="1">
          <mxGeometry x="34.09999999999991" y="6" width="1.5" height="1" as="geometry" />
        </mxCell>
        <mxCell id="9eh16xiQdjSHdPkHuFP6-414" value="" style="rounded=1;whiteSpace=wrap;html=1;strokeColor=none;rotation=-90;fillColor=#0050ef;fontColor=#ffffff;movable=1;resizable=1;rotatable=1;deletable=1;editable=1;locked=0;connectable=1;" parent="9eh16xiQdjSHdPkHuFP6-410" vertex="1">
          <mxGeometry x="34.09999999999991" y="3.5999999999999943" width="1.5" height="1" as="geometry" />
        </mxCell>
        <mxCell id="9eh16xiQdjSHdPkHuFP6-415" value="" style="rounded=0;whiteSpace=wrap;html=1;strokeColor=none;fillColor=#333333;strokeWidth=0.5;movable=1;resizable=1;rotatable=1;deletable=1;editable=1;locked=0;connectable=1;" parent="9eh16xiQdjSHdPkHuFP6-410" vertex="1">
          <mxGeometry x="1" y="1" width="25.5" height="6" as="geometry" />
        </mxCell>
        <mxCell id="9eh16xiQdjSHdPkHuFP6-416" value="" style="rounded=1;whiteSpace=wrap;html=1;strokeColor=none;fillColor=#0050ef;strokeWidth=0.5;fontColor=#ffffff;glass=0;movable=1;resizable=1;rotatable=1;deletable=1;editable=1;locked=0;connectable=1;" parent="9eh16xiQdjSHdPkHuFP6-410" vertex="1">
          <mxGeometry x="28.5" y="2" width="3" height="4" as="geometry" />
        </mxCell>
        <mxCell id="9eh16xiQdjSHdPkHuFP6-417" value="" style="rounded=0;whiteSpace=wrap;html=1;strokeColor=none;fillColor=#333333;strokeWidth=0.5;movable=1;resizable=1;rotatable=1;deletable=1;editable=1;locked=0;connectable=1;" parent="9eh16xiQdjSHdPkHuFP6-410" vertex="1">
          <mxGeometry x="26.5" y="1" width="3.5" height="6" as="geometry" />
        </mxCell>
        <mxCell id="9eh16xiQdjSHdPkHuFP6-418" value="" style="rounded=0;whiteSpace=wrap;html=1;strokeColor=#333333;fillColor=#222222;strokeWidth=0.2;movable=1;resizable=1;rotatable=1;deletable=1;editable=1;locked=0;connectable=1;" parent="9eh16xiQdjSHdPkHuFP6-410" vertex="1">
          <mxGeometry x="4.5" y="1.6999999999999886" width="22" height="1" as="geometry" />
        </mxCell>
        <mxCell id="9eh16xiQdjSHdPkHuFP6-419" value="" style="rounded=0;whiteSpace=wrap;html=1;strokeColor=#333333;fillColor=#222222;strokeWidth=0.2;movable=1;resizable=1;rotatable=1;deletable=1;editable=1;locked=0;connectable=1;" parent="9eh16xiQdjSHdPkHuFP6-410" vertex="1">
          <mxGeometry x="4.5" y="2.8499999999999943" width="22" height="1" as="geometry" />
        </mxCell>
        <mxCell id="9eh16xiQdjSHdPkHuFP6-420" value="" style="rounded=0;whiteSpace=wrap;html=1;strokeColor=#333333;fillColor=#222222;strokeWidth=0.2;movable=1;resizable=1;rotatable=1;deletable=1;editable=1;locked=0;connectable=1;" parent="9eh16xiQdjSHdPkHuFP6-410" vertex="1">
          <mxGeometry x="4.5" y="4.099999999999994" width="22" height="1" as="geometry" />
        </mxCell>
        <mxCell id="9eh16xiQdjSHdPkHuFP6-421" value="" style="rounded=0;whiteSpace=wrap;html=1;strokeColor=#333333;fillColor=#222222;strokeWidth=0.2;movable=1;resizable=1;rotatable=1;deletable=1;editable=1;locked=0;connectable=1;" parent="9eh16xiQdjSHdPkHuFP6-410" vertex="1">
          <mxGeometry x="4.5" y="5.299999999999983" width="22" height="1" as="geometry" />
        </mxCell>
        <mxCell id="9eh16xiQdjSHdPkHuFP6-422" value="" style="rounded=0;whiteSpace=wrap;html=1;strokeColor=none;fillColor=#333333;strokeWidth=0.5;movable=1;resizable=1;rotatable=1;deletable=1;editable=1;locked=0;connectable=1;" parent="9eh16xiQdjSHdPkHuFP6-410" vertex="1">
          <mxGeometry x="19" y="1" width="1" height="6" as="geometry" />
        </mxCell>
        <mxCell id="9eh16xiQdjSHdPkHuFP6-423" value="" style="rounded=0;whiteSpace=wrap;html=1;strokeColor=none;fillColor=#333333;strokeWidth=0.5;movable=1;resizable=1;rotatable=1;deletable=1;editable=1;locked=0;connectable=1;" parent="9eh16xiQdjSHdPkHuFP6-410" vertex="1">
          <mxGeometry x="11" y="1" width="1" height="6" as="geometry" />
        </mxCell>
        <mxCell id="9eh16xiQdjSHdPkHuFP6-424" value="" style="shape=or;whiteSpace=wrap;html=1;fillColor=#0050ef;fontColor=#ffffff;strokeColor=none;movable=1;resizable=1;rotatable=1;deletable=1;editable=1;locked=0;connectable=1;" parent="9eh16xiQdjSHdPkHuFP6-410" vertex="1">
          <mxGeometry x="31" y="2" width="1" height="4" as="geometry" />
        </mxCell>
        <mxCell id="9eh16xiQdjSHdPkHuFP6-425" value="" style="group;movable=1;resizable=1;rotatable=1;deletable=1;editable=1;locked=0;connectable=1;" parent="9eh16xiQdjSHdPkHuFP6-377" vertex="1" connectable="0">
          <mxGeometry x="118.40000000000009" y="6.599999999999994" width="36" height="8" as="geometry" />
        </mxCell>
        <mxCell id="9eh16xiQdjSHdPkHuFP6-426" value="" style="rounded=0;whiteSpace=wrap;html=1;strokeColor=none;fillColor=#333333;strokeWidth=0.5;movable=1;resizable=1;rotatable=1;deletable=1;editable=1;locked=0;connectable=1;" parent="9eh16xiQdjSHdPkHuFP6-425" vertex="1">
          <mxGeometry width="36" height="8" as="geometry" />
        </mxCell>
        <mxCell id="9eh16xiQdjSHdPkHuFP6-427" value="" style="rounded=0;whiteSpace=wrap;html=1;strokeColor=#222222;fillColor=#222222;strokeWidth=0.5;movable=1;resizable=1;rotatable=1;deletable=1;editable=1;locked=0;connectable=1;" parent="9eh16xiQdjSHdPkHuFP6-425" vertex="1">
          <mxGeometry x="1" y="1" width="32.5" height="6" as="geometry" />
        </mxCell>
        <mxCell id="9eh16xiQdjSHdPkHuFP6-428" value="" style="rounded=1;whiteSpace=wrap;html=1;strokeColor=none;rotation=-90;fillColor=#60a917;fontColor=#ffffff;movable=1;resizable=1;rotatable=1;deletable=1;editable=1;locked=0;connectable=1;" parent="9eh16xiQdjSHdPkHuFP6-425" vertex="1">
          <mxGeometry x="34.09999999999991" y="6" width="1.5" height="1" as="geometry" />
        </mxCell>
        <mxCell id="9eh16xiQdjSHdPkHuFP6-429" value="" style="rounded=1;whiteSpace=wrap;html=1;strokeColor=none;rotation=-90;fillColor=#0050ef;fontColor=#ffffff;movable=1;resizable=1;rotatable=1;deletable=1;editable=1;locked=0;connectable=1;" parent="9eh16xiQdjSHdPkHuFP6-425" vertex="1">
          <mxGeometry x="34.09999999999991" y="3.5999999999999943" width="1.5" height="1" as="geometry" />
        </mxCell>
        <mxCell id="9eh16xiQdjSHdPkHuFP6-430" value="" style="rounded=0;whiteSpace=wrap;html=1;strokeColor=none;fillColor=#333333;strokeWidth=0.5;movable=1;resizable=1;rotatable=1;deletable=1;editable=1;locked=0;connectable=1;" parent="9eh16xiQdjSHdPkHuFP6-425" vertex="1">
          <mxGeometry x="1" y="1" width="25.5" height="6" as="geometry" />
        </mxCell>
        <mxCell id="9eh16xiQdjSHdPkHuFP6-431" value="" style="rounded=1;whiteSpace=wrap;html=1;strokeColor=none;fillColor=#0050ef;strokeWidth=0.5;fontColor=#ffffff;glass=0;movable=1;resizable=1;rotatable=1;deletable=1;editable=1;locked=0;connectable=1;" parent="9eh16xiQdjSHdPkHuFP6-425" vertex="1">
          <mxGeometry x="28.5" y="2" width="3" height="4" as="geometry" />
        </mxCell>
        <mxCell id="9eh16xiQdjSHdPkHuFP6-432" value="" style="rounded=0;whiteSpace=wrap;html=1;strokeColor=none;fillColor=#333333;strokeWidth=0.5;movable=1;resizable=1;rotatable=1;deletable=1;editable=1;locked=0;connectable=1;" parent="9eh16xiQdjSHdPkHuFP6-425" vertex="1">
          <mxGeometry x="26.5" y="1" width="3.5" height="6" as="geometry" />
        </mxCell>
        <mxCell id="9eh16xiQdjSHdPkHuFP6-433" value="" style="rounded=0;whiteSpace=wrap;html=1;strokeColor=#333333;fillColor=#222222;strokeWidth=0.2;movable=1;resizable=1;rotatable=1;deletable=1;editable=1;locked=0;connectable=1;" parent="9eh16xiQdjSHdPkHuFP6-425" vertex="1">
          <mxGeometry x="4.5" y="1.6999999999999886" width="22" height="1" as="geometry" />
        </mxCell>
        <mxCell id="9eh16xiQdjSHdPkHuFP6-434" value="" style="rounded=0;whiteSpace=wrap;html=1;strokeColor=#333333;fillColor=#222222;strokeWidth=0.2;movable=1;resizable=1;rotatable=1;deletable=1;editable=1;locked=0;connectable=1;" parent="9eh16xiQdjSHdPkHuFP6-425" vertex="1">
          <mxGeometry x="4.5" y="2.8499999999999943" width="22" height="1" as="geometry" />
        </mxCell>
        <mxCell id="9eh16xiQdjSHdPkHuFP6-435" value="" style="rounded=0;whiteSpace=wrap;html=1;strokeColor=#333333;fillColor=#222222;strokeWidth=0.2;movable=1;resizable=1;rotatable=1;deletable=1;editable=1;locked=0;connectable=1;" parent="9eh16xiQdjSHdPkHuFP6-425" vertex="1">
          <mxGeometry x="4.5" y="4.099999999999994" width="22" height="1" as="geometry" />
        </mxCell>
        <mxCell id="9eh16xiQdjSHdPkHuFP6-436" value="" style="rounded=0;whiteSpace=wrap;html=1;strokeColor=#333333;fillColor=#222222;strokeWidth=0.2;movable=1;resizable=1;rotatable=1;deletable=1;editable=1;locked=0;connectable=1;" parent="9eh16xiQdjSHdPkHuFP6-425" vertex="1">
          <mxGeometry x="4.5" y="5.299999999999983" width="22" height="1" as="geometry" />
        </mxCell>
        <mxCell id="9eh16xiQdjSHdPkHuFP6-437" value="" style="rounded=0;whiteSpace=wrap;html=1;strokeColor=none;fillColor=#333333;strokeWidth=0.5;movable=1;resizable=1;rotatable=1;deletable=1;editable=1;locked=0;connectable=1;" parent="9eh16xiQdjSHdPkHuFP6-425" vertex="1">
          <mxGeometry x="19" y="1" width="1" height="6" as="geometry" />
        </mxCell>
        <mxCell id="9eh16xiQdjSHdPkHuFP6-438" value="" style="rounded=0;whiteSpace=wrap;html=1;strokeColor=none;fillColor=#333333;strokeWidth=0.5;movable=1;resizable=1;rotatable=1;deletable=1;editable=1;locked=0;connectable=1;" parent="9eh16xiQdjSHdPkHuFP6-425" vertex="1">
          <mxGeometry x="11" y="1" width="1" height="6" as="geometry" />
        </mxCell>
        <mxCell id="9eh16xiQdjSHdPkHuFP6-439" value="" style="shape=or;whiteSpace=wrap;html=1;fillColor=#0050ef;fontColor=#ffffff;strokeColor=none;movable=1;resizable=1;rotatable=1;deletable=1;editable=1;locked=0;connectable=1;" parent="9eh16xiQdjSHdPkHuFP6-425" vertex="1">
          <mxGeometry x="31" y="2" width="1" height="4" as="geometry" />
        </mxCell>
        <mxCell id="9eh16xiQdjSHdPkHuFP6-440" value="" style="group;movable=1;resizable=1;rotatable=1;deletable=1;editable=1;locked=0;connectable=1;" parent="9eh16xiQdjSHdPkHuFP6-377" vertex="1" connectable="0">
          <mxGeometry x="5.599999999999909" y="16.19999999999999" width="36" height="8" as="geometry" />
        </mxCell>
        <mxCell id="9eh16xiQdjSHdPkHuFP6-441" value="" style="rounded=0;whiteSpace=wrap;html=1;strokeColor=none;fillColor=#333333;strokeWidth=0.5;movable=1;resizable=1;rotatable=1;deletable=1;editable=1;locked=0;connectable=1;" parent="9eh16xiQdjSHdPkHuFP6-440" vertex="1">
          <mxGeometry width="36" height="8" as="geometry" />
        </mxCell>
        <mxCell id="9eh16xiQdjSHdPkHuFP6-442" value="" style="rounded=0;whiteSpace=wrap;html=1;strokeColor=#222222;fillColor=#222222;strokeWidth=0.5;movable=1;resizable=1;rotatable=1;deletable=1;editable=1;locked=0;connectable=1;" parent="9eh16xiQdjSHdPkHuFP6-440" vertex="1">
          <mxGeometry x="1" y="1" width="32.5" height="6" as="geometry" />
        </mxCell>
        <mxCell id="9eh16xiQdjSHdPkHuFP6-443" value="" style="rounded=1;whiteSpace=wrap;html=1;strokeColor=none;rotation=-90;fillColor=#60a917;fontColor=#ffffff;movable=1;resizable=1;rotatable=1;deletable=1;editable=1;locked=0;connectable=1;" parent="9eh16xiQdjSHdPkHuFP6-440" vertex="1">
          <mxGeometry x="34.09999999999991" y="6" width="1.5" height="1" as="geometry" />
        </mxCell>
        <mxCell id="9eh16xiQdjSHdPkHuFP6-444" value="" style="rounded=1;whiteSpace=wrap;html=1;strokeColor=none;rotation=-90;fillColor=#0050ef;fontColor=#ffffff;movable=1;resizable=1;rotatable=1;deletable=1;editable=1;locked=0;connectable=1;" parent="9eh16xiQdjSHdPkHuFP6-440" vertex="1">
          <mxGeometry x="34.09999999999991" y="3.5999999999999943" width="1.5" height="1" as="geometry" />
        </mxCell>
        <mxCell id="9eh16xiQdjSHdPkHuFP6-445" value="" style="rounded=0;whiteSpace=wrap;html=1;strokeColor=none;fillColor=#333333;strokeWidth=0.5;movable=1;resizable=1;rotatable=1;deletable=1;editable=1;locked=0;connectable=1;" parent="9eh16xiQdjSHdPkHuFP6-440" vertex="1">
          <mxGeometry x="1" y="1" width="25.5" height="6" as="geometry" />
        </mxCell>
        <mxCell id="9eh16xiQdjSHdPkHuFP6-446" value="" style="rounded=1;whiteSpace=wrap;html=1;strokeColor=none;fillColor=#0050ef;strokeWidth=0.5;fontColor=#ffffff;glass=0;movable=1;resizable=1;rotatable=1;deletable=1;editable=1;locked=0;connectable=1;" parent="9eh16xiQdjSHdPkHuFP6-440" vertex="1">
          <mxGeometry x="28.5" y="2" width="3" height="4" as="geometry" />
        </mxCell>
        <mxCell id="9eh16xiQdjSHdPkHuFP6-447" value="" style="rounded=0;whiteSpace=wrap;html=1;strokeColor=none;fillColor=#333333;strokeWidth=0.5;movable=1;resizable=1;rotatable=1;deletable=1;editable=1;locked=0;connectable=1;" parent="9eh16xiQdjSHdPkHuFP6-440" vertex="1">
          <mxGeometry x="26.5" y="1" width="3.5" height="6" as="geometry" />
        </mxCell>
        <mxCell id="9eh16xiQdjSHdPkHuFP6-448" value="" style="rounded=0;whiteSpace=wrap;html=1;strokeColor=#333333;fillColor=#222222;strokeWidth=0.2;movable=1;resizable=1;rotatable=1;deletable=1;editable=1;locked=0;connectable=1;" parent="9eh16xiQdjSHdPkHuFP6-440" vertex="1">
          <mxGeometry x="4.5" y="1.6999999999999886" width="22" height="1" as="geometry" />
        </mxCell>
        <mxCell id="9eh16xiQdjSHdPkHuFP6-449" value="" style="rounded=0;whiteSpace=wrap;html=1;strokeColor=#333333;fillColor=#222222;strokeWidth=0.2;movable=1;resizable=1;rotatable=1;deletable=1;editable=1;locked=0;connectable=1;" parent="9eh16xiQdjSHdPkHuFP6-440" vertex="1">
          <mxGeometry x="4.5" y="2.8499999999999943" width="22" height="1" as="geometry" />
        </mxCell>
        <mxCell id="9eh16xiQdjSHdPkHuFP6-450" value="" style="rounded=0;whiteSpace=wrap;html=1;strokeColor=#333333;fillColor=#222222;strokeWidth=0.2;movable=1;resizable=1;rotatable=1;deletable=1;editable=1;locked=0;connectable=1;" parent="9eh16xiQdjSHdPkHuFP6-440" vertex="1">
          <mxGeometry x="4.5" y="4.099999999999994" width="22" height="1" as="geometry" />
        </mxCell>
        <mxCell id="9eh16xiQdjSHdPkHuFP6-451" value="" style="rounded=0;whiteSpace=wrap;html=1;strokeColor=#333333;fillColor=#222222;strokeWidth=0.2;movable=1;resizable=1;rotatable=1;deletable=1;editable=1;locked=0;connectable=1;" parent="9eh16xiQdjSHdPkHuFP6-440" vertex="1">
          <mxGeometry x="4.5" y="5.299999999999983" width="22" height="1" as="geometry" />
        </mxCell>
        <mxCell id="9eh16xiQdjSHdPkHuFP6-452" value="" style="rounded=0;whiteSpace=wrap;html=1;strokeColor=none;fillColor=#333333;strokeWidth=0.5;movable=1;resizable=1;rotatable=1;deletable=1;editable=1;locked=0;connectable=1;" parent="9eh16xiQdjSHdPkHuFP6-440" vertex="1">
          <mxGeometry x="19" y="1" width="1" height="6" as="geometry" />
        </mxCell>
        <mxCell id="9eh16xiQdjSHdPkHuFP6-453" value="" style="rounded=0;whiteSpace=wrap;html=1;strokeColor=none;fillColor=#333333;strokeWidth=0.5;movable=1;resizable=1;rotatable=1;deletable=1;editable=1;locked=0;connectable=1;" parent="9eh16xiQdjSHdPkHuFP6-440" vertex="1">
          <mxGeometry x="11" y="1" width="1" height="6" as="geometry" />
        </mxCell>
        <mxCell id="9eh16xiQdjSHdPkHuFP6-454" value="" style="shape=or;whiteSpace=wrap;html=1;fillColor=#0050ef;fontColor=#ffffff;strokeColor=none;movable=1;resizable=1;rotatable=1;deletable=1;editable=1;locked=0;connectable=1;" parent="9eh16xiQdjSHdPkHuFP6-440" vertex="1">
          <mxGeometry x="31" y="2" width="1" height="4" as="geometry" />
        </mxCell>
        <mxCell id="9eh16xiQdjSHdPkHuFP6-455" value="" style="group;movable=1;resizable=1;rotatable=1;deletable=1;editable=1;locked=0;connectable=1;" parent="9eh16xiQdjSHdPkHuFP6-377" vertex="1" connectable="0">
          <mxGeometry x="43.200000000000045" y="16.19999999999999" width="36" height="8" as="geometry" />
        </mxCell>
        <mxCell id="9eh16xiQdjSHdPkHuFP6-456" value="" style="rounded=0;whiteSpace=wrap;html=1;strokeColor=none;fillColor=#333333;strokeWidth=0.5;movable=1;resizable=1;rotatable=1;deletable=1;editable=1;locked=0;connectable=1;" parent="9eh16xiQdjSHdPkHuFP6-455" vertex="1">
          <mxGeometry width="36" height="8" as="geometry" />
        </mxCell>
        <mxCell id="9eh16xiQdjSHdPkHuFP6-457" value="" style="rounded=0;whiteSpace=wrap;html=1;strokeColor=#222222;fillColor=#222222;strokeWidth=0.5;movable=1;resizable=1;rotatable=1;deletable=1;editable=1;locked=0;connectable=1;" parent="9eh16xiQdjSHdPkHuFP6-455" vertex="1">
          <mxGeometry x="1" y="1" width="32.5" height="6" as="geometry" />
        </mxCell>
        <mxCell id="9eh16xiQdjSHdPkHuFP6-458" value="" style="rounded=1;whiteSpace=wrap;html=1;strokeColor=none;rotation=-90;fillColor=#60a917;fontColor=#ffffff;movable=1;resizable=1;rotatable=1;deletable=1;editable=1;locked=0;connectable=1;" parent="9eh16xiQdjSHdPkHuFP6-455" vertex="1">
          <mxGeometry x="34.09999999999991" y="6" width="1.5" height="1" as="geometry" />
        </mxCell>
        <mxCell id="9eh16xiQdjSHdPkHuFP6-459" value="" style="rounded=1;whiteSpace=wrap;html=1;strokeColor=none;rotation=-90;fillColor=#0050ef;fontColor=#ffffff;movable=1;resizable=1;rotatable=1;deletable=1;editable=1;locked=0;connectable=1;" parent="9eh16xiQdjSHdPkHuFP6-455" vertex="1">
          <mxGeometry x="34.09999999999991" y="3.5999999999999943" width="1.5" height="1" as="geometry" />
        </mxCell>
        <mxCell id="9eh16xiQdjSHdPkHuFP6-460" value="" style="rounded=0;whiteSpace=wrap;html=1;strokeColor=none;fillColor=#333333;strokeWidth=0.5;movable=1;resizable=1;rotatable=1;deletable=1;editable=1;locked=0;connectable=1;" parent="9eh16xiQdjSHdPkHuFP6-455" vertex="1">
          <mxGeometry x="1" y="1" width="25.5" height="6" as="geometry" />
        </mxCell>
        <mxCell id="9eh16xiQdjSHdPkHuFP6-461" value="" style="rounded=1;whiteSpace=wrap;html=1;strokeColor=none;fillColor=#0050ef;strokeWidth=0.5;fontColor=#ffffff;glass=0;movable=1;resizable=1;rotatable=1;deletable=1;editable=1;locked=0;connectable=1;" parent="9eh16xiQdjSHdPkHuFP6-455" vertex="1">
          <mxGeometry x="28.5" y="2" width="3" height="4" as="geometry" />
        </mxCell>
        <mxCell id="9eh16xiQdjSHdPkHuFP6-462" value="" style="rounded=0;whiteSpace=wrap;html=1;strokeColor=none;fillColor=#333333;strokeWidth=0.5;movable=1;resizable=1;rotatable=1;deletable=1;editable=1;locked=0;connectable=1;" parent="9eh16xiQdjSHdPkHuFP6-455" vertex="1">
          <mxGeometry x="26.5" y="1" width="3.5" height="6" as="geometry" />
        </mxCell>
        <mxCell id="9eh16xiQdjSHdPkHuFP6-463" value="" style="rounded=0;whiteSpace=wrap;html=1;strokeColor=#333333;fillColor=#222222;strokeWidth=0.2;movable=1;resizable=1;rotatable=1;deletable=1;editable=1;locked=0;connectable=1;" parent="9eh16xiQdjSHdPkHuFP6-455" vertex="1">
          <mxGeometry x="4.5" y="1.6999999999999886" width="22" height="1" as="geometry" />
        </mxCell>
        <mxCell id="9eh16xiQdjSHdPkHuFP6-464" value="" style="rounded=0;whiteSpace=wrap;html=1;strokeColor=#333333;fillColor=#222222;strokeWidth=0.2;movable=1;resizable=1;rotatable=1;deletable=1;editable=1;locked=0;connectable=1;" parent="9eh16xiQdjSHdPkHuFP6-455" vertex="1">
          <mxGeometry x="4.5" y="2.8499999999999943" width="22" height="1" as="geometry" />
        </mxCell>
        <mxCell id="9eh16xiQdjSHdPkHuFP6-465" value="" style="rounded=0;whiteSpace=wrap;html=1;strokeColor=#333333;fillColor=#222222;strokeWidth=0.2;movable=1;resizable=1;rotatable=1;deletable=1;editable=1;locked=0;connectable=1;" parent="9eh16xiQdjSHdPkHuFP6-455" vertex="1">
          <mxGeometry x="4.5" y="4.099999999999994" width="22" height="1" as="geometry" />
        </mxCell>
        <mxCell id="9eh16xiQdjSHdPkHuFP6-466" value="" style="rounded=0;whiteSpace=wrap;html=1;strokeColor=#333333;fillColor=#222222;strokeWidth=0.2;movable=1;resizable=1;rotatable=1;deletable=1;editable=1;locked=0;connectable=1;" parent="9eh16xiQdjSHdPkHuFP6-455" vertex="1">
          <mxGeometry x="4.5" y="5.299999999999983" width="22" height="1" as="geometry" />
        </mxCell>
        <mxCell id="9eh16xiQdjSHdPkHuFP6-467" value="" style="rounded=0;whiteSpace=wrap;html=1;strokeColor=none;fillColor=#333333;strokeWidth=0.5;movable=1;resizable=1;rotatable=1;deletable=1;editable=1;locked=0;connectable=1;" parent="9eh16xiQdjSHdPkHuFP6-455" vertex="1">
          <mxGeometry x="19" y="1" width="1" height="6" as="geometry" />
        </mxCell>
        <mxCell id="9eh16xiQdjSHdPkHuFP6-468" value="" style="rounded=0;whiteSpace=wrap;html=1;strokeColor=none;fillColor=#333333;strokeWidth=0.5;movable=1;resizable=1;rotatable=1;deletable=1;editable=1;locked=0;connectable=1;" parent="9eh16xiQdjSHdPkHuFP6-455" vertex="1">
          <mxGeometry x="11" y="1" width="1" height="6" as="geometry" />
        </mxCell>
        <mxCell id="9eh16xiQdjSHdPkHuFP6-469" value="" style="shape=or;whiteSpace=wrap;html=1;fillColor=#0050ef;fontColor=#ffffff;strokeColor=none;movable=1;resizable=1;rotatable=1;deletable=1;editable=1;locked=0;connectable=1;" parent="9eh16xiQdjSHdPkHuFP6-455" vertex="1">
          <mxGeometry x="31" y="2" width="1" height="4" as="geometry" />
        </mxCell>
        <mxCell id="9eh16xiQdjSHdPkHuFP6-470" value="" style="group;movable=1;resizable=1;rotatable=1;deletable=1;editable=1;locked=0;connectable=1;" parent="9eh16xiQdjSHdPkHuFP6-377" vertex="1" connectable="0">
          <mxGeometry x="80.79999999999995" y="16.19999999999999" width="36" height="8" as="geometry" />
        </mxCell>
        <mxCell id="9eh16xiQdjSHdPkHuFP6-471" value="" style="rounded=0;whiteSpace=wrap;html=1;strokeColor=none;fillColor=#333333;strokeWidth=0.5;movable=1;resizable=1;rotatable=1;deletable=1;editable=1;locked=0;connectable=1;" parent="9eh16xiQdjSHdPkHuFP6-470" vertex="1">
          <mxGeometry width="36" height="8" as="geometry" />
        </mxCell>
        <mxCell id="9eh16xiQdjSHdPkHuFP6-472" value="" style="rounded=0;whiteSpace=wrap;html=1;strokeColor=#222222;fillColor=#222222;strokeWidth=0.5;movable=1;resizable=1;rotatable=1;deletable=1;editable=1;locked=0;connectable=1;" parent="9eh16xiQdjSHdPkHuFP6-470" vertex="1">
          <mxGeometry x="1" y="1" width="32.5" height="6" as="geometry" />
        </mxCell>
        <mxCell id="9eh16xiQdjSHdPkHuFP6-473" value="" style="rounded=1;whiteSpace=wrap;html=1;strokeColor=none;rotation=-90;fillColor=#60a917;fontColor=#ffffff;movable=1;resizable=1;rotatable=1;deletable=1;editable=1;locked=0;connectable=1;" parent="9eh16xiQdjSHdPkHuFP6-470" vertex="1">
          <mxGeometry x="34.09999999999991" y="6" width="1.5" height="1" as="geometry" />
        </mxCell>
        <mxCell id="9eh16xiQdjSHdPkHuFP6-474" value="" style="rounded=1;whiteSpace=wrap;html=1;strokeColor=none;rotation=-90;fillColor=#0050ef;fontColor=#ffffff;movable=1;resizable=1;rotatable=1;deletable=1;editable=1;locked=0;connectable=1;" parent="9eh16xiQdjSHdPkHuFP6-470" vertex="1">
          <mxGeometry x="34.09999999999991" y="3.5999999999999943" width="1.5" height="1" as="geometry" />
        </mxCell>
        <mxCell id="9eh16xiQdjSHdPkHuFP6-475" value="" style="rounded=0;whiteSpace=wrap;html=1;strokeColor=none;fillColor=#333333;strokeWidth=0.5;movable=1;resizable=1;rotatable=1;deletable=1;editable=1;locked=0;connectable=1;" parent="9eh16xiQdjSHdPkHuFP6-470" vertex="1">
          <mxGeometry x="1" y="1" width="25.5" height="6" as="geometry" />
        </mxCell>
        <mxCell id="9eh16xiQdjSHdPkHuFP6-476" value="" style="rounded=1;whiteSpace=wrap;html=1;strokeColor=none;fillColor=#0050ef;strokeWidth=0.5;fontColor=#ffffff;glass=0;movable=1;resizable=1;rotatable=1;deletable=1;editable=1;locked=0;connectable=1;" parent="9eh16xiQdjSHdPkHuFP6-470" vertex="1">
          <mxGeometry x="28.5" y="2" width="3" height="4" as="geometry" />
        </mxCell>
        <mxCell id="9eh16xiQdjSHdPkHuFP6-477" value="" style="rounded=0;whiteSpace=wrap;html=1;strokeColor=none;fillColor=#333333;strokeWidth=0.5;movable=1;resizable=1;rotatable=1;deletable=1;editable=1;locked=0;connectable=1;" parent="9eh16xiQdjSHdPkHuFP6-470" vertex="1">
          <mxGeometry x="26.5" y="1" width="3.5" height="6" as="geometry" />
        </mxCell>
        <mxCell id="9eh16xiQdjSHdPkHuFP6-478" value="" style="rounded=0;whiteSpace=wrap;html=1;strokeColor=#333333;fillColor=#222222;strokeWidth=0.2;movable=1;resizable=1;rotatable=1;deletable=1;editable=1;locked=0;connectable=1;" parent="9eh16xiQdjSHdPkHuFP6-470" vertex="1">
          <mxGeometry x="4.5" y="1.6999999999999886" width="22" height="1" as="geometry" />
        </mxCell>
        <mxCell id="9eh16xiQdjSHdPkHuFP6-479" value="" style="rounded=0;whiteSpace=wrap;html=1;strokeColor=#333333;fillColor=#222222;strokeWidth=0.2;movable=1;resizable=1;rotatable=1;deletable=1;editable=1;locked=0;connectable=1;" parent="9eh16xiQdjSHdPkHuFP6-470" vertex="1">
          <mxGeometry x="4.5" y="2.8499999999999943" width="22" height="1" as="geometry" />
        </mxCell>
        <mxCell id="9eh16xiQdjSHdPkHuFP6-480" value="" style="rounded=0;whiteSpace=wrap;html=1;strokeColor=#333333;fillColor=#222222;strokeWidth=0.2;movable=1;resizable=1;rotatable=1;deletable=1;editable=1;locked=0;connectable=1;" parent="9eh16xiQdjSHdPkHuFP6-470" vertex="1">
          <mxGeometry x="4.5" y="4.099999999999994" width="22" height="1" as="geometry" />
        </mxCell>
        <mxCell id="9eh16xiQdjSHdPkHuFP6-481" value="" style="rounded=0;whiteSpace=wrap;html=1;strokeColor=#333333;fillColor=#222222;strokeWidth=0.2;movable=1;resizable=1;rotatable=1;deletable=1;editable=1;locked=0;connectable=1;" parent="9eh16xiQdjSHdPkHuFP6-470" vertex="1">
          <mxGeometry x="4.5" y="5.299999999999983" width="22" height="1" as="geometry" />
        </mxCell>
        <mxCell id="9eh16xiQdjSHdPkHuFP6-482" value="" style="rounded=0;whiteSpace=wrap;html=1;strokeColor=none;fillColor=#333333;strokeWidth=0.5;movable=1;resizable=1;rotatable=1;deletable=1;editable=1;locked=0;connectable=1;" parent="9eh16xiQdjSHdPkHuFP6-470" vertex="1">
          <mxGeometry x="19" y="1" width="1" height="6" as="geometry" />
        </mxCell>
        <mxCell id="9eh16xiQdjSHdPkHuFP6-483" value="" style="rounded=0;whiteSpace=wrap;html=1;strokeColor=none;fillColor=#333333;strokeWidth=0.5;movable=1;resizable=1;rotatable=1;deletable=1;editable=1;locked=0;connectable=1;" parent="9eh16xiQdjSHdPkHuFP6-470" vertex="1">
          <mxGeometry x="11" y="1" width="1" height="6" as="geometry" />
        </mxCell>
        <mxCell id="9eh16xiQdjSHdPkHuFP6-484" value="" style="shape=or;whiteSpace=wrap;html=1;fillColor=#0050ef;fontColor=#ffffff;strokeColor=none;movable=1;resizable=1;rotatable=1;deletable=1;editable=1;locked=0;connectable=1;" parent="9eh16xiQdjSHdPkHuFP6-470" vertex="1">
          <mxGeometry x="31" y="2" width="1" height="4" as="geometry" />
        </mxCell>
        <mxCell id="9eh16xiQdjSHdPkHuFP6-485" value="" style="group;movable=1;resizable=1;rotatable=1;deletable=1;editable=1;locked=0;connectable=1;" parent="9eh16xiQdjSHdPkHuFP6-377" vertex="1" connectable="0">
          <mxGeometry x="118.40000000000009" y="16.19999999999999" width="36" height="8" as="geometry" />
        </mxCell>
        <mxCell id="9eh16xiQdjSHdPkHuFP6-486" value="" style="rounded=0;whiteSpace=wrap;html=1;strokeColor=none;fillColor=#333333;strokeWidth=0.5;movable=1;resizable=1;rotatable=1;deletable=1;editable=1;locked=0;connectable=1;" parent="9eh16xiQdjSHdPkHuFP6-485" vertex="1">
          <mxGeometry width="36" height="8" as="geometry" />
        </mxCell>
        <mxCell id="9eh16xiQdjSHdPkHuFP6-487" value="" style="rounded=0;whiteSpace=wrap;html=1;strokeColor=#222222;fillColor=#222222;strokeWidth=0.5;movable=1;resizable=1;rotatable=1;deletable=1;editable=1;locked=0;connectable=1;" parent="9eh16xiQdjSHdPkHuFP6-485" vertex="1">
          <mxGeometry x="1" y="1" width="32.5" height="6" as="geometry" />
        </mxCell>
        <mxCell id="9eh16xiQdjSHdPkHuFP6-488" value="" style="rounded=1;whiteSpace=wrap;html=1;strokeColor=none;rotation=-90;fillColor=#60a917;fontColor=#ffffff;movable=1;resizable=1;rotatable=1;deletable=1;editable=1;locked=0;connectable=1;" parent="9eh16xiQdjSHdPkHuFP6-485" vertex="1">
          <mxGeometry x="34.09999999999991" y="6" width="1.5" height="1" as="geometry" />
        </mxCell>
        <mxCell id="9eh16xiQdjSHdPkHuFP6-489" value="" style="rounded=1;whiteSpace=wrap;html=1;strokeColor=none;rotation=-90;fillColor=#0050ef;fontColor=#ffffff;movable=1;resizable=1;rotatable=1;deletable=1;editable=1;locked=0;connectable=1;" parent="9eh16xiQdjSHdPkHuFP6-485" vertex="1">
          <mxGeometry x="34.09999999999991" y="3.5999999999999943" width="1.5" height="1" as="geometry" />
        </mxCell>
        <mxCell id="9eh16xiQdjSHdPkHuFP6-490" value="" style="rounded=0;whiteSpace=wrap;html=1;strokeColor=none;fillColor=#333333;strokeWidth=0.5;movable=1;resizable=1;rotatable=1;deletable=1;editable=1;locked=0;connectable=1;" parent="9eh16xiQdjSHdPkHuFP6-485" vertex="1">
          <mxGeometry x="1" y="1" width="25.5" height="6" as="geometry" />
        </mxCell>
        <mxCell id="9eh16xiQdjSHdPkHuFP6-491" value="" style="rounded=1;whiteSpace=wrap;html=1;strokeColor=none;fillColor=#0050ef;strokeWidth=0.5;fontColor=#ffffff;glass=0;movable=1;resizable=1;rotatable=1;deletable=1;editable=1;locked=0;connectable=1;" parent="9eh16xiQdjSHdPkHuFP6-485" vertex="1">
          <mxGeometry x="28.5" y="2" width="3" height="4" as="geometry" />
        </mxCell>
        <mxCell id="9eh16xiQdjSHdPkHuFP6-492" value="" style="rounded=0;whiteSpace=wrap;html=1;strokeColor=none;fillColor=#333333;strokeWidth=0.5;movable=1;resizable=1;rotatable=1;deletable=1;editable=1;locked=0;connectable=1;" parent="9eh16xiQdjSHdPkHuFP6-485" vertex="1">
          <mxGeometry x="26.5" y="1" width="3.5" height="6" as="geometry" />
        </mxCell>
        <mxCell id="9eh16xiQdjSHdPkHuFP6-493" value="" style="rounded=0;whiteSpace=wrap;html=1;strokeColor=#333333;fillColor=#222222;strokeWidth=0.2;movable=1;resizable=1;rotatable=1;deletable=1;editable=1;locked=0;connectable=1;" parent="9eh16xiQdjSHdPkHuFP6-485" vertex="1">
          <mxGeometry x="4.5" y="1.6999999999999886" width="22" height="1" as="geometry" />
        </mxCell>
        <mxCell id="9eh16xiQdjSHdPkHuFP6-494" value="" style="rounded=0;whiteSpace=wrap;html=1;strokeColor=#333333;fillColor=#222222;strokeWidth=0.2;movable=1;resizable=1;rotatable=1;deletable=1;editable=1;locked=0;connectable=1;" parent="9eh16xiQdjSHdPkHuFP6-485" vertex="1">
          <mxGeometry x="4.5" y="2.8499999999999943" width="22" height="1" as="geometry" />
        </mxCell>
        <mxCell id="9eh16xiQdjSHdPkHuFP6-495" value="" style="rounded=0;whiteSpace=wrap;html=1;strokeColor=#333333;fillColor=#222222;strokeWidth=0.2;movable=1;resizable=1;rotatable=1;deletable=1;editable=1;locked=0;connectable=1;" parent="9eh16xiQdjSHdPkHuFP6-485" vertex="1">
          <mxGeometry x="4.5" y="4.099999999999994" width="22" height="1" as="geometry" />
        </mxCell>
        <mxCell id="9eh16xiQdjSHdPkHuFP6-496" value="" style="rounded=0;whiteSpace=wrap;html=1;strokeColor=#333333;fillColor=#222222;strokeWidth=0.2;movable=1;resizable=1;rotatable=1;deletable=1;editable=1;locked=0;connectable=1;" parent="9eh16xiQdjSHdPkHuFP6-485" vertex="1">
          <mxGeometry x="4.5" y="5.299999999999983" width="22" height="1" as="geometry" />
        </mxCell>
        <mxCell id="9eh16xiQdjSHdPkHuFP6-497" value="" style="rounded=0;whiteSpace=wrap;html=1;strokeColor=none;fillColor=#333333;strokeWidth=0.5;movable=1;resizable=1;rotatable=1;deletable=1;editable=1;locked=0;connectable=1;" parent="9eh16xiQdjSHdPkHuFP6-485" vertex="1">
          <mxGeometry x="19" y="1" width="1" height="6" as="geometry" />
        </mxCell>
        <mxCell id="9eh16xiQdjSHdPkHuFP6-498" value="" style="rounded=0;whiteSpace=wrap;html=1;strokeColor=none;fillColor=#333333;strokeWidth=0.5;movable=1;resizable=1;rotatable=1;deletable=1;editable=1;locked=0;connectable=1;" parent="9eh16xiQdjSHdPkHuFP6-485" vertex="1">
          <mxGeometry x="11" y="1" width="1" height="6" as="geometry" />
        </mxCell>
        <mxCell id="9eh16xiQdjSHdPkHuFP6-499" value="" style="shape=or;whiteSpace=wrap;html=1;fillColor=#0050ef;fontColor=#ffffff;strokeColor=none;movable=1;resizable=1;rotatable=1;deletable=1;editable=1;locked=0;connectable=1;" parent="9eh16xiQdjSHdPkHuFP6-485" vertex="1">
          <mxGeometry x="31" y="2" width="1" height="4" as="geometry" />
        </mxCell>
        <mxCell id="9eh16xiQdjSHdPkHuFP6-500" value="" style="group;movable=1;resizable=1;rotatable=1;deletable=1;editable=1;locked=0;connectable=1;" parent="9eh16xiQdjSHdPkHuFP6-377" vertex="1" connectable="0">
          <mxGeometry x="5.599999999999909" y="25.80000000000001" width="36" height="8" as="geometry" />
        </mxCell>
        <mxCell id="9eh16xiQdjSHdPkHuFP6-501" value="" style="rounded=0;whiteSpace=wrap;html=1;strokeColor=none;fillColor=#333333;strokeWidth=0.5;movable=1;resizable=1;rotatable=1;deletable=1;editable=1;locked=0;connectable=1;" parent="9eh16xiQdjSHdPkHuFP6-500" vertex="1">
          <mxGeometry width="36" height="8" as="geometry" />
        </mxCell>
        <mxCell id="9eh16xiQdjSHdPkHuFP6-502" value="" style="rounded=0;whiteSpace=wrap;html=1;strokeColor=#222222;fillColor=#222222;strokeWidth=0.5;movable=1;resizable=1;rotatable=1;deletable=1;editable=1;locked=0;connectable=1;" parent="9eh16xiQdjSHdPkHuFP6-500" vertex="1">
          <mxGeometry x="1" y="1" width="32.5" height="6" as="geometry" />
        </mxCell>
        <mxCell id="9eh16xiQdjSHdPkHuFP6-503" value="" style="rounded=1;whiteSpace=wrap;html=1;strokeColor=none;rotation=-90;fillColor=#60a917;fontColor=#ffffff;movable=1;resizable=1;rotatable=1;deletable=1;editable=1;locked=0;connectable=1;" parent="9eh16xiQdjSHdPkHuFP6-500" vertex="1">
          <mxGeometry x="34.09999999999991" y="6" width="1.5" height="1" as="geometry" />
        </mxCell>
        <mxCell id="9eh16xiQdjSHdPkHuFP6-504" value="" style="rounded=1;whiteSpace=wrap;html=1;strokeColor=none;rotation=-90;fillColor=#0050ef;fontColor=#ffffff;movable=1;resizable=1;rotatable=1;deletable=1;editable=1;locked=0;connectable=1;" parent="9eh16xiQdjSHdPkHuFP6-500" vertex="1">
          <mxGeometry x="34.09999999999991" y="3.5999999999999943" width="1.5" height="1" as="geometry" />
        </mxCell>
        <mxCell id="9eh16xiQdjSHdPkHuFP6-505" value="" style="rounded=0;whiteSpace=wrap;html=1;strokeColor=none;fillColor=#333333;strokeWidth=0.5;movable=1;resizable=1;rotatable=1;deletable=1;editable=1;locked=0;connectable=1;" parent="9eh16xiQdjSHdPkHuFP6-500" vertex="1">
          <mxGeometry x="1" y="1" width="25.5" height="6" as="geometry" />
        </mxCell>
        <mxCell id="9eh16xiQdjSHdPkHuFP6-506" value="" style="rounded=1;whiteSpace=wrap;html=1;strokeColor=none;fillColor=#0050ef;strokeWidth=0.5;fontColor=#ffffff;glass=0;movable=1;resizable=1;rotatable=1;deletable=1;editable=1;locked=0;connectable=1;" parent="9eh16xiQdjSHdPkHuFP6-500" vertex="1">
          <mxGeometry x="28.5" y="2" width="3" height="4" as="geometry" />
        </mxCell>
        <mxCell id="9eh16xiQdjSHdPkHuFP6-507" value="" style="rounded=0;whiteSpace=wrap;html=1;strokeColor=none;fillColor=#333333;strokeWidth=0.5;movable=1;resizable=1;rotatable=1;deletable=1;editable=1;locked=0;connectable=1;" parent="9eh16xiQdjSHdPkHuFP6-500" vertex="1">
          <mxGeometry x="26.5" y="1" width="3.5" height="6" as="geometry" />
        </mxCell>
        <mxCell id="9eh16xiQdjSHdPkHuFP6-508" value="" style="rounded=0;whiteSpace=wrap;html=1;strokeColor=#333333;fillColor=#222222;strokeWidth=0.2;movable=1;resizable=1;rotatable=1;deletable=1;editable=1;locked=0;connectable=1;" parent="9eh16xiQdjSHdPkHuFP6-500" vertex="1">
          <mxGeometry x="4.5" y="1.6999999999999886" width="22" height="1" as="geometry" />
        </mxCell>
        <mxCell id="9eh16xiQdjSHdPkHuFP6-509" value="" style="rounded=0;whiteSpace=wrap;html=1;strokeColor=#333333;fillColor=#222222;strokeWidth=0.2;movable=1;resizable=1;rotatable=1;deletable=1;editable=1;locked=0;connectable=1;" parent="9eh16xiQdjSHdPkHuFP6-500" vertex="1">
          <mxGeometry x="4.5" y="2.8499999999999943" width="22" height="1" as="geometry" />
        </mxCell>
        <mxCell id="9eh16xiQdjSHdPkHuFP6-510" value="" style="rounded=0;whiteSpace=wrap;html=1;strokeColor=#333333;fillColor=#222222;strokeWidth=0.2;movable=1;resizable=1;rotatable=1;deletable=1;editable=1;locked=0;connectable=1;" parent="9eh16xiQdjSHdPkHuFP6-500" vertex="1">
          <mxGeometry x="4.5" y="4.099999999999994" width="22" height="1" as="geometry" />
        </mxCell>
        <mxCell id="9eh16xiQdjSHdPkHuFP6-511" value="" style="rounded=0;whiteSpace=wrap;html=1;strokeColor=#333333;fillColor=#222222;strokeWidth=0.2;movable=1;resizable=1;rotatable=1;deletable=1;editable=1;locked=0;connectable=1;" parent="9eh16xiQdjSHdPkHuFP6-500" vertex="1">
          <mxGeometry x="4.5" y="5.299999999999983" width="22" height="1" as="geometry" />
        </mxCell>
        <mxCell id="9eh16xiQdjSHdPkHuFP6-512" value="" style="rounded=0;whiteSpace=wrap;html=1;strokeColor=none;fillColor=#333333;strokeWidth=0.5;movable=1;resizable=1;rotatable=1;deletable=1;editable=1;locked=0;connectable=1;" parent="9eh16xiQdjSHdPkHuFP6-500" vertex="1">
          <mxGeometry x="19" y="1" width="1" height="6" as="geometry" />
        </mxCell>
        <mxCell id="9eh16xiQdjSHdPkHuFP6-513" value="" style="rounded=0;whiteSpace=wrap;html=1;strokeColor=none;fillColor=#333333;strokeWidth=0.5;movable=1;resizable=1;rotatable=1;deletable=1;editable=1;locked=0;connectable=1;" parent="9eh16xiQdjSHdPkHuFP6-500" vertex="1">
          <mxGeometry x="11" y="1" width="1" height="6" as="geometry" />
        </mxCell>
        <mxCell id="9eh16xiQdjSHdPkHuFP6-514" value="" style="shape=or;whiteSpace=wrap;html=1;fillColor=#0050ef;fontColor=#ffffff;strokeColor=none;movable=1;resizable=1;rotatable=1;deletable=1;editable=1;locked=0;connectable=1;" parent="9eh16xiQdjSHdPkHuFP6-500" vertex="1">
          <mxGeometry x="31" y="2" width="1" height="4" as="geometry" />
        </mxCell>
        <mxCell id="9eh16xiQdjSHdPkHuFP6-515" value="" style="group;movable=1;resizable=1;rotatable=1;deletable=1;editable=1;locked=0;connectable=1;" parent="9eh16xiQdjSHdPkHuFP6-377" vertex="1" connectable="0">
          <mxGeometry x="43.200000000000045" y="25.80000000000001" width="36" height="8" as="geometry" />
        </mxCell>
        <mxCell id="9eh16xiQdjSHdPkHuFP6-516" value="" style="rounded=0;whiteSpace=wrap;html=1;strokeColor=none;fillColor=#333333;strokeWidth=0.5;movable=1;resizable=1;rotatable=1;deletable=1;editable=1;locked=0;connectable=1;" parent="9eh16xiQdjSHdPkHuFP6-515" vertex="1">
          <mxGeometry width="36" height="8" as="geometry" />
        </mxCell>
        <mxCell id="9eh16xiQdjSHdPkHuFP6-517" value="" style="rounded=0;whiteSpace=wrap;html=1;strokeColor=#222222;fillColor=#222222;strokeWidth=0.5;movable=1;resizable=1;rotatable=1;deletable=1;editable=1;locked=0;connectable=1;" parent="9eh16xiQdjSHdPkHuFP6-515" vertex="1">
          <mxGeometry x="1" y="1" width="32.5" height="6" as="geometry" />
        </mxCell>
        <mxCell id="9eh16xiQdjSHdPkHuFP6-518" value="" style="rounded=1;whiteSpace=wrap;html=1;strokeColor=none;rotation=-90;fillColor=#60a917;fontColor=#ffffff;movable=1;resizable=1;rotatable=1;deletable=1;editable=1;locked=0;connectable=1;" parent="9eh16xiQdjSHdPkHuFP6-515" vertex="1">
          <mxGeometry x="34.09999999999991" y="6" width="1.5" height="1" as="geometry" />
        </mxCell>
        <mxCell id="9eh16xiQdjSHdPkHuFP6-519" value="" style="rounded=1;whiteSpace=wrap;html=1;strokeColor=none;rotation=-90;fillColor=#0050ef;fontColor=#ffffff;movable=1;resizable=1;rotatable=1;deletable=1;editable=1;locked=0;connectable=1;" parent="9eh16xiQdjSHdPkHuFP6-515" vertex="1">
          <mxGeometry x="34.09999999999991" y="3.5999999999999943" width="1.5" height="1" as="geometry" />
        </mxCell>
        <mxCell id="9eh16xiQdjSHdPkHuFP6-520" value="" style="rounded=0;whiteSpace=wrap;html=1;strokeColor=none;fillColor=#333333;strokeWidth=0.5;movable=1;resizable=1;rotatable=1;deletable=1;editable=1;locked=0;connectable=1;" parent="9eh16xiQdjSHdPkHuFP6-515" vertex="1">
          <mxGeometry x="1" y="1" width="25.5" height="6" as="geometry" />
        </mxCell>
        <mxCell id="9eh16xiQdjSHdPkHuFP6-521" value="" style="rounded=1;whiteSpace=wrap;html=1;strokeColor=none;fillColor=#0050ef;strokeWidth=0.5;fontColor=#ffffff;glass=0;movable=1;resizable=1;rotatable=1;deletable=1;editable=1;locked=0;connectable=1;" parent="9eh16xiQdjSHdPkHuFP6-515" vertex="1">
          <mxGeometry x="28.5" y="2" width="3" height="4" as="geometry" />
        </mxCell>
        <mxCell id="9eh16xiQdjSHdPkHuFP6-522" value="" style="rounded=0;whiteSpace=wrap;html=1;strokeColor=none;fillColor=#333333;strokeWidth=0.5;movable=1;resizable=1;rotatable=1;deletable=1;editable=1;locked=0;connectable=1;" parent="9eh16xiQdjSHdPkHuFP6-515" vertex="1">
          <mxGeometry x="26.5" y="1" width="3.5" height="6" as="geometry" />
        </mxCell>
        <mxCell id="9eh16xiQdjSHdPkHuFP6-523" value="" style="rounded=0;whiteSpace=wrap;html=1;strokeColor=#333333;fillColor=#222222;strokeWidth=0.2;movable=1;resizable=1;rotatable=1;deletable=1;editable=1;locked=0;connectable=1;" parent="9eh16xiQdjSHdPkHuFP6-515" vertex="1">
          <mxGeometry x="4.5" y="1.6999999999999886" width="22" height="1" as="geometry" />
        </mxCell>
        <mxCell id="9eh16xiQdjSHdPkHuFP6-524" value="" style="rounded=0;whiteSpace=wrap;html=1;strokeColor=#333333;fillColor=#222222;strokeWidth=0.2;movable=1;resizable=1;rotatable=1;deletable=1;editable=1;locked=0;connectable=1;" parent="9eh16xiQdjSHdPkHuFP6-515" vertex="1">
          <mxGeometry x="4.5" y="2.8499999999999943" width="22" height="1" as="geometry" />
        </mxCell>
        <mxCell id="9eh16xiQdjSHdPkHuFP6-525" value="" style="rounded=0;whiteSpace=wrap;html=1;strokeColor=#333333;fillColor=#222222;strokeWidth=0.2;movable=1;resizable=1;rotatable=1;deletable=1;editable=1;locked=0;connectable=1;" parent="9eh16xiQdjSHdPkHuFP6-515" vertex="1">
          <mxGeometry x="4.5" y="4.099999999999994" width="22" height="1" as="geometry" />
        </mxCell>
        <mxCell id="9eh16xiQdjSHdPkHuFP6-526" value="" style="rounded=0;whiteSpace=wrap;html=1;strokeColor=#333333;fillColor=#222222;strokeWidth=0.2;movable=1;resizable=1;rotatable=1;deletable=1;editable=1;locked=0;connectable=1;" parent="9eh16xiQdjSHdPkHuFP6-515" vertex="1">
          <mxGeometry x="4.5" y="5.299999999999983" width="22" height="1" as="geometry" />
        </mxCell>
        <mxCell id="9eh16xiQdjSHdPkHuFP6-527" value="" style="rounded=0;whiteSpace=wrap;html=1;strokeColor=none;fillColor=#333333;strokeWidth=0.5;movable=1;resizable=1;rotatable=1;deletable=1;editable=1;locked=0;connectable=1;" parent="9eh16xiQdjSHdPkHuFP6-515" vertex="1">
          <mxGeometry x="19" y="1" width="1" height="6" as="geometry" />
        </mxCell>
        <mxCell id="9eh16xiQdjSHdPkHuFP6-528" value="" style="rounded=0;whiteSpace=wrap;html=1;strokeColor=none;fillColor=#333333;strokeWidth=0.5;movable=1;resizable=1;rotatable=1;deletable=1;editable=1;locked=0;connectable=1;" parent="9eh16xiQdjSHdPkHuFP6-515" vertex="1">
          <mxGeometry x="11" y="1" width="1" height="6" as="geometry" />
        </mxCell>
        <mxCell id="9eh16xiQdjSHdPkHuFP6-529" value="" style="shape=or;whiteSpace=wrap;html=1;fillColor=#0050ef;fontColor=#ffffff;strokeColor=none;movable=1;resizable=1;rotatable=1;deletable=1;editable=1;locked=0;connectable=1;" parent="9eh16xiQdjSHdPkHuFP6-515" vertex="1">
          <mxGeometry x="31" y="2" width="1" height="4" as="geometry" />
        </mxCell>
        <mxCell id="9eh16xiQdjSHdPkHuFP6-530" value="" style="group;movable=1;resizable=1;rotatable=1;deletable=1;editable=1;locked=0;connectable=1;" parent="9eh16xiQdjSHdPkHuFP6-377" vertex="1" connectable="0">
          <mxGeometry x="80.79999999999995" y="25.80000000000001" width="36" height="8" as="geometry" />
        </mxCell>
        <mxCell id="9eh16xiQdjSHdPkHuFP6-531" value="" style="rounded=0;whiteSpace=wrap;html=1;strokeColor=none;fillColor=#333333;strokeWidth=0.5;movable=1;resizable=1;rotatable=1;deletable=1;editable=1;locked=0;connectable=1;" parent="9eh16xiQdjSHdPkHuFP6-530" vertex="1">
          <mxGeometry width="36" height="8" as="geometry" />
        </mxCell>
        <mxCell id="9eh16xiQdjSHdPkHuFP6-532" value="" style="rounded=0;whiteSpace=wrap;html=1;strokeColor=#222222;fillColor=#222222;strokeWidth=0.5;movable=1;resizable=1;rotatable=1;deletable=1;editable=1;locked=0;connectable=1;" parent="9eh16xiQdjSHdPkHuFP6-530" vertex="1">
          <mxGeometry x="1" y="1" width="32.5" height="6" as="geometry" />
        </mxCell>
        <mxCell id="9eh16xiQdjSHdPkHuFP6-533" value="" style="rounded=1;whiteSpace=wrap;html=1;strokeColor=none;rotation=-90;fillColor=#60a917;fontColor=#ffffff;movable=1;resizable=1;rotatable=1;deletable=1;editable=1;locked=0;connectable=1;" parent="9eh16xiQdjSHdPkHuFP6-530" vertex="1">
          <mxGeometry x="34.09999999999991" y="6" width="1.5" height="1" as="geometry" />
        </mxCell>
        <mxCell id="9eh16xiQdjSHdPkHuFP6-534" value="" style="rounded=1;whiteSpace=wrap;html=1;strokeColor=none;rotation=-90;fillColor=#0050ef;fontColor=#ffffff;movable=1;resizable=1;rotatable=1;deletable=1;editable=1;locked=0;connectable=1;" parent="9eh16xiQdjSHdPkHuFP6-530" vertex="1">
          <mxGeometry x="34.09999999999991" y="3.5999999999999943" width="1.5" height="1" as="geometry" />
        </mxCell>
        <mxCell id="9eh16xiQdjSHdPkHuFP6-535" value="" style="rounded=0;whiteSpace=wrap;html=1;strokeColor=none;fillColor=#333333;strokeWidth=0.5;movable=1;resizable=1;rotatable=1;deletable=1;editable=1;locked=0;connectable=1;" parent="9eh16xiQdjSHdPkHuFP6-530" vertex="1">
          <mxGeometry x="1" y="1" width="25.5" height="6" as="geometry" />
        </mxCell>
        <mxCell id="9eh16xiQdjSHdPkHuFP6-536" value="" style="rounded=1;whiteSpace=wrap;html=1;strokeColor=none;fillColor=#0050ef;strokeWidth=0.5;fontColor=#ffffff;glass=0;movable=1;resizable=1;rotatable=1;deletable=1;editable=1;locked=0;connectable=1;" parent="9eh16xiQdjSHdPkHuFP6-530" vertex="1">
          <mxGeometry x="28.5" y="2" width="3" height="4" as="geometry" />
        </mxCell>
        <mxCell id="9eh16xiQdjSHdPkHuFP6-537" value="" style="rounded=0;whiteSpace=wrap;html=1;strokeColor=none;fillColor=#333333;strokeWidth=0.5;movable=1;resizable=1;rotatable=1;deletable=1;editable=1;locked=0;connectable=1;" parent="9eh16xiQdjSHdPkHuFP6-530" vertex="1">
          <mxGeometry x="26.5" y="1" width="3.5" height="6" as="geometry" />
        </mxCell>
        <mxCell id="9eh16xiQdjSHdPkHuFP6-538" value="" style="rounded=0;whiteSpace=wrap;html=1;strokeColor=#333333;fillColor=#222222;strokeWidth=0.2;movable=1;resizable=1;rotatable=1;deletable=1;editable=1;locked=0;connectable=1;" parent="9eh16xiQdjSHdPkHuFP6-530" vertex="1">
          <mxGeometry x="4.5" y="1.6999999999999886" width="22" height="1" as="geometry" />
        </mxCell>
        <mxCell id="9eh16xiQdjSHdPkHuFP6-539" value="" style="rounded=0;whiteSpace=wrap;html=1;strokeColor=#333333;fillColor=#222222;strokeWidth=0.2;movable=1;resizable=1;rotatable=1;deletable=1;editable=1;locked=0;connectable=1;" parent="9eh16xiQdjSHdPkHuFP6-530" vertex="1">
          <mxGeometry x="4.5" y="2.8499999999999943" width="22" height="1" as="geometry" />
        </mxCell>
        <mxCell id="9eh16xiQdjSHdPkHuFP6-540" value="" style="rounded=0;whiteSpace=wrap;html=1;strokeColor=#333333;fillColor=#222222;strokeWidth=0.2;movable=1;resizable=1;rotatable=1;deletable=1;editable=1;locked=0;connectable=1;" parent="9eh16xiQdjSHdPkHuFP6-530" vertex="1">
          <mxGeometry x="4.5" y="4.099999999999994" width="22" height="1" as="geometry" />
        </mxCell>
        <mxCell id="9eh16xiQdjSHdPkHuFP6-541" value="" style="rounded=0;whiteSpace=wrap;html=1;strokeColor=#333333;fillColor=#222222;strokeWidth=0.2;movable=1;resizable=1;rotatable=1;deletable=1;editable=1;locked=0;connectable=1;" parent="9eh16xiQdjSHdPkHuFP6-530" vertex="1">
          <mxGeometry x="4.5" y="5.299999999999983" width="22" height="1" as="geometry" />
        </mxCell>
        <mxCell id="9eh16xiQdjSHdPkHuFP6-542" value="" style="rounded=0;whiteSpace=wrap;html=1;strokeColor=none;fillColor=#333333;strokeWidth=0.5;movable=1;resizable=1;rotatable=1;deletable=1;editable=1;locked=0;connectable=1;" parent="9eh16xiQdjSHdPkHuFP6-530" vertex="1">
          <mxGeometry x="19" y="1" width="1" height="6" as="geometry" />
        </mxCell>
        <mxCell id="9eh16xiQdjSHdPkHuFP6-543" value="" style="rounded=0;whiteSpace=wrap;html=1;strokeColor=none;fillColor=#333333;strokeWidth=0.5;movable=1;resizable=1;rotatable=1;deletable=1;editable=1;locked=0;connectable=1;" parent="9eh16xiQdjSHdPkHuFP6-530" vertex="1">
          <mxGeometry x="11" y="1" width="1" height="6" as="geometry" />
        </mxCell>
        <mxCell id="9eh16xiQdjSHdPkHuFP6-544" value="" style="shape=or;whiteSpace=wrap;html=1;fillColor=#0050ef;fontColor=#ffffff;strokeColor=none;movable=1;resizable=1;rotatable=1;deletable=1;editable=1;locked=0;connectable=1;" parent="9eh16xiQdjSHdPkHuFP6-530" vertex="1">
          <mxGeometry x="31" y="2" width="1" height="4" as="geometry" />
        </mxCell>
        <mxCell id="9eh16xiQdjSHdPkHuFP6-545" value="" style="group;movable=1;resizable=1;rotatable=1;deletable=1;editable=1;locked=0;connectable=1;" parent="9eh16xiQdjSHdPkHuFP6-377" vertex="1" connectable="0">
          <mxGeometry x="118.40000000000009" y="25.80000000000001" width="36" height="8" as="geometry" />
        </mxCell>
        <mxCell id="9eh16xiQdjSHdPkHuFP6-546" value="" style="rounded=0;whiteSpace=wrap;html=1;strokeColor=none;fillColor=#333333;strokeWidth=0.5;movable=1;resizable=1;rotatable=1;deletable=1;editable=1;locked=0;connectable=1;" parent="9eh16xiQdjSHdPkHuFP6-545" vertex="1">
          <mxGeometry width="36" height="8" as="geometry" />
        </mxCell>
        <mxCell id="9eh16xiQdjSHdPkHuFP6-547" value="" style="rounded=0;whiteSpace=wrap;html=1;strokeColor=#222222;fillColor=#222222;strokeWidth=0.5;movable=1;resizable=1;rotatable=1;deletable=1;editable=1;locked=0;connectable=1;" parent="9eh16xiQdjSHdPkHuFP6-545" vertex="1">
          <mxGeometry x="1" y="1" width="32.5" height="6" as="geometry" />
        </mxCell>
        <mxCell id="9eh16xiQdjSHdPkHuFP6-548" value="" style="rounded=1;whiteSpace=wrap;html=1;strokeColor=none;rotation=-90;fillColor=#60a917;fontColor=#ffffff;movable=1;resizable=1;rotatable=1;deletable=1;editable=1;locked=0;connectable=1;" parent="9eh16xiQdjSHdPkHuFP6-545" vertex="1">
          <mxGeometry x="34.09999999999991" y="6" width="1.5" height="1" as="geometry" />
        </mxCell>
        <mxCell id="9eh16xiQdjSHdPkHuFP6-549" value="" style="rounded=1;whiteSpace=wrap;html=1;strokeColor=none;rotation=-90;fillColor=#0050ef;fontColor=#ffffff;movable=1;resizable=1;rotatable=1;deletable=1;editable=1;locked=0;connectable=1;" parent="9eh16xiQdjSHdPkHuFP6-545" vertex="1">
          <mxGeometry x="34.09999999999991" y="3.5999999999999943" width="1.5" height="1" as="geometry" />
        </mxCell>
        <mxCell id="9eh16xiQdjSHdPkHuFP6-550" value="" style="rounded=0;whiteSpace=wrap;html=1;strokeColor=none;fillColor=#333333;strokeWidth=0.5;movable=1;resizable=1;rotatable=1;deletable=1;editable=1;locked=0;connectable=1;" parent="9eh16xiQdjSHdPkHuFP6-545" vertex="1">
          <mxGeometry x="1" y="1" width="25.5" height="6" as="geometry" />
        </mxCell>
        <mxCell id="9eh16xiQdjSHdPkHuFP6-551" value="" style="rounded=1;whiteSpace=wrap;html=1;strokeColor=none;fillColor=#0050ef;strokeWidth=0.5;fontColor=#ffffff;glass=0;movable=1;resizable=1;rotatable=1;deletable=1;editable=1;locked=0;connectable=1;" parent="9eh16xiQdjSHdPkHuFP6-545" vertex="1">
          <mxGeometry x="28.5" y="2" width="3" height="4" as="geometry" />
        </mxCell>
        <mxCell id="9eh16xiQdjSHdPkHuFP6-552" value="" style="rounded=0;whiteSpace=wrap;html=1;strokeColor=none;fillColor=#333333;strokeWidth=0.5;movable=1;resizable=1;rotatable=1;deletable=1;editable=1;locked=0;connectable=1;" parent="9eh16xiQdjSHdPkHuFP6-545" vertex="1">
          <mxGeometry x="26.5" y="1" width="3.5" height="6" as="geometry" />
        </mxCell>
        <mxCell id="9eh16xiQdjSHdPkHuFP6-553" value="" style="rounded=0;whiteSpace=wrap;html=1;strokeColor=#333333;fillColor=#222222;strokeWidth=0.2;movable=1;resizable=1;rotatable=1;deletable=1;editable=1;locked=0;connectable=1;" parent="9eh16xiQdjSHdPkHuFP6-545" vertex="1">
          <mxGeometry x="4.5" y="1.6999999999999886" width="22" height="1" as="geometry" />
        </mxCell>
        <mxCell id="9eh16xiQdjSHdPkHuFP6-554" value="" style="rounded=0;whiteSpace=wrap;html=1;strokeColor=#333333;fillColor=#222222;strokeWidth=0.2;movable=1;resizable=1;rotatable=1;deletable=1;editable=1;locked=0;connectable=1;" parent="9eh16xiQdjSHdPkHuFP6-545" vertex="1">
          <mxGeometry x="4.5" y="2.8499999999999943" width="22" height="1" as="geometry" />
        </mxCell>
        <mxCell id="9eh16xiQdjSHdPkHuFP6-555" value="" style="rounded=0;whiteSpace=wrap;html=1;strokeColor=#333333;fillColor=#222222;strokeWidth=0.2;movable=1;resizable=1;rotatable=1;deletable=1;editable=1;locked=0;connectable=1;" parent="9eh16xiQdjSHdPkHuFP6-545" vertex="1">
          <mxGeometry x="4.5" y="4.099999999999994" width="22" height="1" as="geometry" />
        </mxCell>
        <mxCell id="9eh16xiQdjSHdPkHuFP6-556" value="" style="rounded=0;whiteSpace=wrap;html=1;strokeColor=#333333;fillColor=#222222;strokeWidth=0.2;movable=1;resizable=1;rotatable=1;deletable=1;editable=1;locked=0;connectable=1;" parent="9eh16xiQdjSHdPkHuFP6-545" vertex="1">
          <mxGeometry x="4.5" y="5.299999999999983" width="22" height="1" as="geometry" />
        </mxCell>
        <mxCell id="9eh16xiQdjSHdPkHuFP6-557" value="" style="rounded=0;whiteSpace=wrap;html=1;strokeColor=none;fillColor=#333333;strokeWidth=0.5;movable=1;resizable=1;rotatable=1;deletable=1;editable=1;locked=0;connectable=1;" parent="9eh16xiQdjSHdPkHuFP6-545" vertex="1">
          <mxGeometry x="19" y="1" width="1" height="6" as="geometry" />
        </mxCell>
        <mxCell id="9eh16xiQdjSHdPkHuFP6-558" value="" style="rounded=0;whiteSpace=wrap;html=1;strokeColor=none;fillColor=#333333;strokeWidth=0.5;movable=1;resizable=1;rotatable=1;deletable=1;editable=1;locked=0;connectable=1;" parent="9eh16xiQdjSHdPkHuFP6-545" vertex="1">
          <mxGeometry x="11" y="1" width="1" height="6" as="geometry" />
        </mxCell>
        <mxCell id="9eh16xiQdjSHdPkHuFP6-559" value="" style="shape=or;whiteSpace=wrap;html=1;fillColor=#0050ef;fontColor=#ffffff;strokeColor=none;movable=1;resizable=1;rotatable=1;deletable=1;editable=1;locked=0;connectable=1;" parent="9eh16xiQdjSHdPkHuFP6-545" vertex="1">
          <mxGeometry x="31" y="2" width="1" height="4" as="geometry" />
        </mxCell>
        <mxCell id="9eh16xiQdjSHdPkHuFP6-560" value="" style="group;movable=1;resizable=1;rotatable=1;deletable=1;editable=1;locked=0;connectable=1;" parent="9eh16xiQdjSHdPkHuFP6-377" vertex="1" connectable="0">
          <mxGeometry x="5.599999999999909" y="35.400000000000006" width="36" height="8" as="geometry" />
        </mxCell>
        <mxCell id="9eh16xiQdjSHdPkHuFP6-561" value="" style="rounded=0;whiteSpace=wrap;html=1;strokeColor=none;fillColor=#333333;strokeWidth=0.5;movable=1;resizable=1;rotatable=1;deletable=1;editable=1;locked=0;connectable=1;" parent="9eh16xiQdjSHdPkHuFP6-560" vertex="1">
          <mxGeometry width="36" height="8" as="geometry" />
        </mxCell>
        <mxCell id="9eh16xiQdjSHdPkHuFP6-562" value="" style="rounded=0;whiteSpace=wrap;html=1;strokeColor=#222222;fillColor=#222222;strokeWidth=0.5;movable=1;resizable=1;rotatable=1;deletable=1;editable=1;locked=0;connectable=1;" parent="9eh16xiQdjSHdPkHuFP6-560" vertex="1">
          <mxGeometry x="1" y="1" width="32.5" height="6" as="geometry" />
        </mxCell>
        <mxCell id="9eh16xiQdjSHdPkHuFP6-563" value="" style="rounded=1;whiteSpace=wrap;html=1;strokeColor=none;rotation=-90;fillColor=#60a917;fontColor=#ffffff;movable=1;resizable=1;rotatable=1;deletable=1;editable=1;locked=0;connectable=1;" parent="9eh16xiQdjSHdPkHuFP6-560" vertex="1">
          <mxGeometry x="34.09999999999991" y="6" width="1.5" height="1" as="geometry" />
        </mxCell>
        <mxCell id="9eh16xiQdjSHdPkHuFP6-564" value="" style="rounded=1;whiteSpace=wrap;html=1;strokeColor=none;rotation=-90;fillColor=#0050ef;fontColor=#ffffff;movable=1;resizable=1;rotatable=1;deletable=1;editable=1;locked=0;connectable=1;" parent="9eh16xiQdjSHdPkHuFP6-560" vertex="1">
          <mxGeometry x="34.09999999999991" y="3.5999999999999943" width="1.5" height="1" as="geometry" />
        </mxCell>
        <mxCell id="9eh16xiQdjSHdPkHuFP6-565" value="" style="rounded=0;whiteSpace=wrap;html=1;strokeColor=none;fillColor=#333333;strokeWidth=0.5;movable=1;resizable=1;rotatable=1;deletable=1;editable=1;locked=0;connectable=1;" parent="9eh16xiQdjSHdPkHuFP6-560" vertex="1">
          <mxGeometry x="1" y="1" width="25.5" height="6" as="geometry" />
        </mxCell>
        <mxCell id="9eh16xiQdjSHdPkHuFP6-566" value="" style="rounded=1;whiteSpace=wrap;html=1;strokeColor=none;fillColor=#0050ef;strokeWidth=0.5;fontColor=#ffffff;glass=0;movable=1;resizable=1;rotatable=1;deletable=1;editable=1;locked=0;connectable=1;" parent="9eh16xiQdjSHdPkHuFP6-560" vertex="1">
          <mxGeometry x="28.5" y="2" width="3" height="4" as="geometry" />
        </mxCell>
        <mxCell id="9eh16xiQdjSHdPkHuFP6-567" value="" style="rounded=0;whiteSpace=wrap;html=1;strokeColor=none;fillColor=#333333;strokeWidth=0.5;movable=1;resizable=1;rotatable=1;deletable=1;editable=1;locked=0;connectable=1;" parent="9eh16xiQdjSHdPkHuFP6-560" vertex="1">
          <mxGeometry x="26.5" y="1" width="3.5" height="6" as="geometry" />
        </mxCell>
        <mxCell id="9eh16xiQdjSHdPkHuFP6-568" value="" style="rounded=0;whiteSpace=wrap;html=1;strokeColor=#333333;fillColor=#222222;strokeWidth=0.2;movable=1;resizable=1;rotatable=1;deletable=1;editable=1;locked=0;connectable=1;" parent="9eh16xiQdjSHdPkHuFP6-560" vertex="1">
          <mxGeometry x="4.5" y="1.6999999999999886" width="22" height="1" as="geometry" />
        </mxCell>
        <mxCell id="9eh16xiQdjSHdPkHuFP6-569" value="" style="rounded=0;whiteSpace=wrap;html=1;strokeColor=#333333;fillColor=#222222;strokeWidth=0.2;movable=1;resizable=1;rotatable=1;deletable=1;editable=1;locked=0;connectable=1;" parent="9eh16xiQdjSHdPkHuFP6-560" vertex="1">
          <mxGeometry x="4.5" y="2.8499999999999943" width="22" height="1" as="geometry" />
        </mxCell>
        <mxCell id="9eh16xiQdjSHdPkHuFP6-570" value="" style="rounded=0;whiteSpace=wrap;html=1;strokeColor=#333333;fillColor=#222222;strokeWidth=0.2;movable=1;resizable=1;rotatable=1;deletable=1;editable=1;locked=0;connectable=1;" parent="9eh16xiQdjSHdPkHuFP6-560" vertex="1">
          <mxGeometry x="4.5" y="4.099999999999994" width="22" height="1" as="geometry" />
        </mxCell>
        <mxCell id="9eh16xiQdjSHdPkHuFP6-571" value="" style="rounded=0;whiteSpace=wrap;html=1;strokeColor=#333333;fillColor=#222222;strokeWidth=0.2;movable=1;resizable=1;rotatable=1;deletable=1;editable=1;locked=0;connectable=1;" parent="9eh16xiQdjSHdPkHuFP6-560" vertex="1">
          <mxGeometry x="4.5" y="5.299999999999983" width="22" height="1" as="geometry" />
        </mxCell>
        <mxCell id="9eh16xiQdjSHdPkHuFP6-572" value="" style="rounded=0;whiteSpace=wrap;html=1;strokeColor=none;fillColor=#333333;strokeWidth=0.5;movable=1;resizable=1;rotatable=1;deletable=1;editable=1;locked=0;connectable=1;" parent="9eh16xiQdjSHdPkHuFP6-560" vertex="1">
          <mxGeometry x="19" y="1" width="1" height="6" as="geometry" />
        </mxCell>
        <mxCell id="9eh16xiQdjSHdPkHuFP6-573" value="" style="rounded=0;whiteSpace=wrap;html=1;strokeColor=none;fillColor=#333333;strokeWidth=0.5;movable=1;resizable=1;rotatable=1;deletable=1;editable=1;locked=0;connectable=1;" parent="9eh16xiQdjSHdPkHuFP6-560" vertex="1">
          <mxGeometry x="11" y="1" width="1" height="6" as="geometry" />
        </mxCell>
        <mxCell id="9eh16xiQdjSHdPkHuFP6-574" value="" style="shape=or;whiteSpace=wrap;html=1;fillColor=#0050ef;fontColor=#ffffff;strokeColor=none;movable=1;resizable=1;rotatable=1;deletable=1;editable=1;locked=0;connectable=1;" parent="9eh16xiQdjSHdPkHuFP6-560" vertex="1">
          <mxGeometry x="31" y="2" width="1" height="4" as="geometry" />
        </mxCell>
        <mxCell id="9eh16xiQdjSHdPkHuFP6-575" value="" style="group;movable=1;resizable=1;rotatable=1;deletable=1;editable=1;locked=0;connectable=1;" parent="9eh16xiQdjSHdPkHuFP6-377" vertex="1" connectable="0">
          <mxGeometry x="43.200000000000045" y="35.400000000000006" width="36" height="8" as="geometry" />
        </mxCell>
        <mxCell id="9eh16xiQdjSHdPkHuFP6-576" value="" style="rounded=0;whiteSpace=wrap;html=1;strokeColor=none;fillColor=#333333;strokeWidth=0.5;movable=1;resizable=1;rotatable=1;deletable=1;editable=1;locked=0;connectable=1;" parent="9eh16xiQdjSHdPkHuFP6-575" vertex="1">
          <mxGeometry width="36" height="8" as="geometry" />
        </mxCell>
        <mxCell id="9eh16xiQdjSHdPkHuFP6-577" value="" style="rounded=0;whiteSpace=wrap;html=1;strokeColor=#222222;fillColor=#222222;strokeWidth=0.5;movable=1;resizable=1;rotatable=1;deletable=1;editable=1;locked=0;connectable=1;" parent="9eh16xiQdjSHdPkHuFP6-575" vertex="1">
          <mxGeometry x="1" y="1" width="32.5" height="6" as="geometry" />
        </mxCell>
        <mxCell id="9eh16xiQdjSHdPkHuFP6-578" value="" style="rounded=1;whiteSpace=wrap;html=1;strokeColor=none;rotation=-90;fillColor=#60a917;fontColor=#ffffff;movable=1;resizable=1;rotatable=1;deletable=1;editable=1;locked=0;connectable=1;" parent="9eh16xiQdjSHdPkHuFP6-575" vertex="1">
          <mxGeometry x="34.09999999999991" y="6" width="1.5" height="1" as="geometry" />
        </mxCell>
        <mxCell id="9eh16xiQdjSHdPkHuFP6-579" value="" style="rounded=1;whiteSpace=wrap;html=1;strokeColor=none;rotation=-90;fillColor=#0050ef;fontColor=#ffffff;movable=1;resizable=1;rotatable=1;deletable=1;editable=1;locked=0;connectable=1;" parent="9eh16xiQdjSHdPkHuFP6-575" vertex="1">
          <mxGeometry x="34.09999999999991" y="3.5999999999999943" width="1.5" height="1" as="geometry" />
        </mxCell>
        <mxCell id="9eh16xiQdjSHdPkHuFP6-580" value="" style="rounded=0;whiteSpace=wrap;html=1;strokeColor=none;fillColor=#333333;strokeWidth=0.5;movable=1;resizable=1;rotatable=1;deletable=1;editable=1;locked=0;connectable=1;" parent="9eh16xiQdjSHdPkHuFP6-575" vertex="1">
          <mxGeometry x="1" y="1" width="25.5" height="6" as="geometry" />
        </mxCell>
        <mxCell id="9eh16xiQdjSHdPkHuFP6-581" value="" style="rounded=1;whiteSpace=wrap;html=1;strokeColor=none;fillColor=#0050ef;strokeWidth=0.5;fontColor=#ffffff;glass=0;movable=1;resizable=1;rotatable=1;deletable=1;editable=1;locked=0;connectable=1;" parent="9eh16xiQdjSHdPkHuFP6-575" vertex="1">
          <mxGeometry x="28.5" y="2" width="3" height="4" as="geometry" />
        </mxCell>
        <mxCell id="9eh16xiQdjSHdPkHuFP6-582" value="" style="rounded=0;whiteSpace=wrap;html=1;strokeColor=none;fillColor=#333333;strokeWidth=0.5;movable=1;resizable=1;rotatable=1;deletable=1;editable=1;locked=0;connectable=1;" parent="9eh16xiQdjSHdPkHuFP6-575" vertex="1">
          <mxGeometry x="26.5" y="1" width="3.5" height="6" as="geometry" />
        </mxCell>
        <mxCell id="9eh16xiQdjSHdPkHuFP6-583" value="" style="rounded=0;whiteSpace=wrap;html=1;strokeColor=#333333;fillColor=#222222;strokeWidth=0.2;movable=1;resizable=1;rotatable=1;deletable=1;editable=1;locked=0;connectable=1;" parent="9eh16xiQdjSHdPkHuFP6-575" vertex="1">
          <mxGeometry x="4.5" y="1.6999999999999886" width="22" height="1" as="geometry" />
        </mxCell>
        <mxCell id="9eh16xiQdjSHdPkHuFP6-584" value="" style="rounded=0;whiteSpace=wrap;html=1;strokeColor=#333333;fillColor=#222222;strokeWidth=0.2;movable=1;resizable=1;rotatable=1;deletable=1;editable=1;locked=0;connectable=1;" parent="9eh16xiQdjSHdPkHuFP6-575" vertex="1">
          <mxGeometry x="4.5" y="2.8499999999999943" width="22" height="1" as="geometry" />
        </mxCell>
        <mxCell id="9eh16xiQdjSHdPkHuFP6-585" value="" style="rounded=0;whiteSpace=wrap;html=1;strokeColor=#333333;fillColor=#222222;strokeWidth=0.2;movable=1;resizable=1;rotatable=1;deletable=1;editable=1;locked=0;connectable=1;" parent="9eh16xiQdjSHdPkHuFP6-575" vertex="1">
          <mxGeometry x="4.5" y="4.099999999999994" width="22" height="1" as="geometry" />
        </mxCell>
        <mxCell id="9eh16xiQdjSHdPkHuFP6-586" value="" style="rounded=0;whiteSpace=wrap;html=1;strokeColor=#333333;fillColor=#222222;strokeWidth=0.2;movable=1;resizable=1;rotatable=1;deletable=1;editable=1;locked=0;connectable=1;" parent="9eh16xiQdjSHdPkHuFP6-575" vertex="1">
          <mxGeometry x="4.5" y="5.299999999999983" width="22" height="1" as="geometry" />
        </mxCell>
        <mxCell id="9eh16xiQdjSHdPkHuFP6-587" value="" style="rounded=0;whiteSpace=wrap;html=1;strokeColor=none;fillColor=#333333;strokeWidth=0.5;movable=1;resizable=1;rotatable=1;deletable=1;editable=1;locked=0;connectable=1;" parent="9eh16xiQdjSHdPkHuFP6-575" vertex="1">
          <mxGeometry x="19" y="1" width="1" height="6" as="geometry" />
        </mxCell>
        <mxCell id="9eh16xiQdjSHdPkHuFP6-588" value="" style="rounded=0;whiteSpace=wrap;html=1;strokeColor=none;fillColor=#333333;strokeWidth=0.5;movable=1;resizable=1;rotatable=1;deletable=1;editable=1;locked=0;connectable=1;" parent="9eh16xiQdjSHdPkHuFP6-575" vertex="1">
          <mxGeometry x="11" y="1" width="1" height="6" as="geometry" />
        </mxCell>
        <mxCell id="9eh16xiQdjSHdPkHuFP6-589" value="" style="shape=or;whiteSpace=wrap;html=1;fillColor=#0050ef;fontColor=#ffffff;strokeColor=none;movable=1;resizable=1;rotatable=1;deletable=1;editable=1;locked=0;connectable=1;" parent="9eh16xiQdjSHdPkHuFP6-575" vertex="1">
          <mxGeometry x="31" y="2" width="1" height="4" as="geometry" />
        </mxCell>
        <mxCell id="9eh16xiQdjSHdPkHuFP6-590" value="" style="group;movable=1;resizable=1;rotatable=1;deletable=1;editable=1;locked=0;connectable=1;" parent="9eh16xiQdjSHdPkHuFP6-377" vertex="1" connectable="0">
          <mxGeometry x="80.79999999999995" y="35.400000000000006" width="36" height="8" as="geometry" />
        </mxCell>
        <mxCell id="9eh16xiQdjSHdPkHuFP6-591" value="" style="rounded=0;whiteSpace=wrap;html=1;strokeColor=none;fillColor=#333333;strokeWidth=0.5;movable=1;resizable=1;rotatable=1;deletable=1;editable=1;locked=0;connectable=1;" parent="9eh16xiQdjSHdPkHuFP6-590" vertex="1">
          <mxGeometry width="36" height="8" as="geometry" />
        </mxCell>
        <mxCell id="9eh16xiQdjSHdPkHuFP6-592" value="" style="rounded=0;whiteSpace=wrap;html=1;strokeColor=#222222;fillColor=#222222;strokeWidth=0.5;movable=1;resizable=1;rotatable=1;deletable=1;editable=1;locked=0;connectable=1;" parent="9eh16xiQdjSHdPkHuFP6-590" vertex="1">
          <mxGeometry x="1" y="1" width="32.5" height="6" as="geometry" />
        </mxCell>
        <mxCell id="9eh16xiQdjSHdPkHuFP6-593" value="" style="rounded=1;whiteSpace=wrap;html=1;strokeColor=none;rotation=-90;fillColor=#60a917;fontColor=#ffffff;movable=1;resizable=1;rotatable=1;deletable=1;editable=1;locked=0;connectable=1;" parent="9eh16xiQdjSHdPkHuFP6-590" vertex="1">
          <mxGeometry x="34.09999999999991" y="6" width="1.5" height="1" as="geometry" />
        </mxCell>
        <mxCell id="9eh16xiQdjSHdPkHuFP6-594" value="" style="rounded=1;whiteSpace=wrap;html=1;strokeColor=none;rotation=-90;fillColor=#0050ef;fontColor=#ffffff;movable=1;resizable=1;rotatable=1;deletable=1;editable=1;locked=0;connectable=1;" parent="9eh16xiQdjSHdPkHuFP6-590" vertex="1">
          <mxGeometry x="34.09999999999991" y="3.5999999999999943" width="1.5" height="1" as="geometry" />
        </mxCell>
        <mxCell id="9eh16xiQdjSHdPkHuFP6-595" value="" style="rounded=0;whiteSpace=wrap;html=1;strokeColor=none;fillColor=#333333;strokeWidth=0.5;movable=1;resizable=1;rotatable=1;deletable=1;editable=1;locked=0;connectable=1;" parent="9eh16xiQdjSHdPkHuFP6-590" vertex="1">
          <mxGeometry x="1" y="1" width="25.5" height="6" as="geometry" />
        </mxCell>
        <mxCell id="9eh16xiQdjSHdPkHuFP6-596" value="" style="rounded=1;whiteSpace=wrap;html=1;strokeColor=none;fillColor=#0050ef;strokeWidth=0.5;fontColor=#ffffff;glass=0;movable=1;resizable=1;rotatable=1;deletable=1;editable=1;locked=0;connectable=1;" parent="9eh16xiQdjSHdPkHuFP6-590" vertex="1">
          <mxGeometry x="28.5" y="2" width="3" height="4" as="geometry" />
        </mxCell>
        <mxCell id="9eh16xiQdjSHdPkHuFP6-597" value="" style="rounded=0;whiteSpace=wrap;html=1;strokeColor=none;fillColor=#333333;strokeWidth=0.5;movable=1;resizable=1;rotatable=1;deletable=1;editable=1;locked=0;connectable=1;" parent="9eh16xiQdjSHdPkHuFP6-590" vertex="1">
          <mxGeometry x="26.5" y="1" width="3.5" height="6" as="geometry" />
        </mxCell>
        <mxCell id="9eh16xiQdjSHdPkHuFP6-598" value="" style="rounded=0;whiteSpace=wrap;html=1;strokeColor=#333333;fillColor=#222222;strokeWidth=0.2;movable=1;resizable=1;rotatable=1;deletable=1;editable=1;locked=0;connectable=1;" parent="9eh16xiQdjSHdPkHuFP6-590" vertex="1">
          <mxGeometry x="4.5" y="1.6999999999999886" width="22" height="1" as="geometry" />
        </mxCell>
        <mxCell id="9eh16xiQdjSHdPkHuFP6-599" value="" style="rounded=0;whiteSpace=wrap;html=1;strokeColor=#333333;fillColor=#222222;strokeWidth=0.2;movable=1;resizable=1;rotatable=1;deletable=1;editable=1;locked=0;connectable=1;" parent="9eh16xiQdjSHdPkHuFP6-590" vertex="1">
          <mxGeometry x="4.5" y="2.8499999999999943" width="22" height="1" as="geometry" />
        </mxCell>
        <mxCell id="9eh16xiQdjSHdPkHuFP6-600" value="" style="rounded=0;whiteSpace=wrap;html=1;strokeColor=#333333;fillColor=#222222;strokeWidth=0.2;movable=1;resizable=1;rotatable=1;deletable=1;editable=1;locked=0;connectable=1;" parent="9eh16xiQdjSHdPkHuFP6-590" vertex="1">
          <mxGeometry x="4.5" y="4.099999999999994" width="22" height="1" as="geometry" />
        </mxCell>
        <mxCell id="9eh16xiQdjSHdPkHuFP6-601" value="" style="rounded=0;whiteSpace=wrap;html=1;strokeColor=#333333;fillColor=#222222;strokeWidth=0.2;movable=1;resizable=1;rotatable=1;deletable=1;editable=1;locked=0;connectable=1;" parent="9eh16xiQdjSHdPkHuFP6-590" vertex="1">
          <mxGeometry x="4.5" y="5.299999999999983" width="22" height="1" as="geometry" />
        </mxCell>
        <mxCell id="9eh16xiQdjSHdPkHuFP6-602" value="" style="rounded=0;whiteSpace=wrap;html=1;strokeColor=none;fillColor=#333333;strokeWidth=0.5;movable=1;resizable=1;rotatable=1;deletable=1;editable=1;locked=0;connectable=1;" parent="9eh16xiQdjSHdPkHuFP6-590" vertex="1">
          <mxGeometry x="19" y="1" width="1" height="6" as="geometry" />
        </mxCell>
        <mxCell id="9eh16xiQdjSHdPkHuFP6-603" value="" style="rounded=0;whiteSpace=wrap;html=1;strokeColor=none;fillColor=#333333;strokeWidth=0.5;movable=1;resizable=1;rotatable=1;deletable=1;editable=1;locked=0;connectable=1;" parent="9eh16xiQdjSHdPkHuFP6-590" vertex="1">
          <mxGeometry x="11" y="1" width="1" height="6" as="geometry" />
        </mxCell>
        <mxCell id="9eh16xiQdjSHdPkHuFP6-604" value="" style="shape=or;whiteSpace=wrap;html=1;fillColor=#0050ef;fontColor=#ffffff;strokeColor=none;movable=1;resizable=1;rotatable=1;deletable=1;editable=1;locked=0;connectable=1;" parent="9eh16xiQdjSHdPkHuFP6-590" vertex="1">
          <mxGeometry x="31" y="2" width="1" height="4" as="geometry" />
        </mxCell>
        <mxCell id="9eh16xiQdjSHdPkHuFP6-605" value="" style="group;movable=1;resizable=1;rotatable=1;deletable=1;editable=1;locked=0;connectable=1;" parent="9eh16xiQdjSHdPkHuFP6-377" vertex="1" connectable="0">
          <mxGeometry x="118.40000000000009" y="35.400000000000006" width="36" height="8" as="geometry" />
        </mxCell>
        <mxCell id="9eh16xiQdjSHdPkHuFP6-606" value="" style="rounded=0;whiteSpace=wrap;html=1;strokeColor=none;fillColor=#333333;strokeWidth=0.5;movable=1;resizable=1;rotatable=1;deletable=1;editable=1;locked=0;connectable=1;" parent="9eh16xiQdjSHdPkHuFP6-605" vertex="1">
          <mxGeometry width="36" height="8" as="geometry" />
        </mxCell>
        <mxCell id="9eh16xiQdjSHdPkHuFP6-607" value="" style="rounded=0;whiteSpace=wrap;html=1;strokeColor=#222222;fillColor=#222222;strokeWidth=0.5;movable=1;resizable=1;rotatable=1;deletable=1;editable=1;locked=0;connectable=1;" parent="9eh16xiQdjSHdPkHuFP6-605" vertex="1">
          <mxGeometry x="1" y="1" width="32.5" height="6" as="geometry" />
        </mxCell>
        <mxCell id="9eh16xiQdjSHdPkHuFP6-608" value="" style="rounded=1;whiteSpace=wrap;html=1;strokeColor=none;rotation=-90;fillColor=#60a917;fontColor=#ffffff;movable=1;resizable=1;rotatable=1;deletable=1;editable=1;locked=0;connectable=1;" parent="9eh16xiQdjSHdPkHuFP6-605" vertex="1">
          <mxGeometry x="34.09999999999991" y="6" width="1.5" height="1" as="geometry" />
        </mxCell>
        <mxCell id="9eh16xiQdjSHdPkHuFP6-609" value="" style="rounded=1;whiteSpace=wrap;html=1;strokeColor=none;rotation=-90;fillColor=#0050ef;fontColor=#ffffff;movable=1;resizable=1;rotatable=1;deletable=1;editable=1;locked=0;connectable=1;" parent="9eh16xiQdjSHdPkHuFP6-605" vertex="1">
          <mxGeometry x="34.09999999999991" y="3.5999999999999943" width="1.5" height="1" as="geometry" />
        </mxCell>
        <mxCell id="9eh16xiQdjSHdPkHuFP6-610" value="" style="rounded=0;whiteSpace=wrap;html=1;strokeColor=none;fillColor=#333333;strokeWidth=0.5;movable=1;resizable=1;rotatable=1;deletable=1;editable=1;locked=0;connectable=1;" parent="9eh16xiQdjSHdPkHuFP6-605" vertex="1">
          <mxGeometry x="1" y="1" width="25.5" height="6" as="geometry" />
        </mxCell>
        <mxCell id="9eh16xiQdjSHdPkHuFP6-611" value="" style="rounded=1;whiteSpace=wrap;html=1;strokeColor=none;fillColor=#0050ef;strokeWidth=0.5;fontColor=#ffffff;glass=0;movable=1;resizable=1;rotatable=1;deletable=1;editable=1;locked=0;connectable=1;" parent="9eh16xiQdjSHdPkHuFP6-605" vertex="1">
          <mxGeometry x="28.5" y="2" width="3" height="4" as="geometry" />
        </mxCell>
        <mxCell id="9eh16xiQdjSHdPkHuFP6-612" value="" style="rounded=0;whiteSpace=wrap;html=1;strokeColor=none;fillColor=#333333;strokeWidth=0.5;movable=1;resizable=1;rotatable=1;deletable=1;editable=1;locked=0;connectable=1;" parent="9eh16xiQdjSHdPkHuFP6-605" vertex="1">
          <mxGeometry x="26.5" y="1" width="3.5" height="6" as="geometry" />
        </mxCell>
        <mxCell id="9eh16xiQdjSHdPkHuFP6-613" value="" style="rounded=0;whiteSpace=wrap;html=1;strokeColor=#333333;fillColor=#222222;strokeWidth=0.2;movable=1;resizable=1;rotatable=1;deletable=1;editable=1;locked=0;connectable=1;" parent="9eh16xiQdjSHdPkHuFP6-605" vertex="1">
          <mxGeometry x="4.5" y="1.6999999999999886" width="22" height="1" as="geometry" />
        </mxCell>
        <mxCell id="9eh16xiQdjSHdPkHuFP6-614" value="" style="rounded=0;whiteSpace=wrap;html=1;strokeColor=#333333;fillColor=#222222;strokeWidth=0.2;movable=1;resizable=1;rotatable=1;deletable=1;editable=1;locked=0;connectable=1;" parent="9eh16xiQdjSHdPkHuFP6-605" vertex="1">
          <mxGeometry x="4.5" y="2.8499999999999943" width="22" height="1" as="geometry" />
        </mxCell>
        <mxCell id="9eh16xiQdjSHdPkHuFP6-615" value="" style="rounded=0;whiteSpace=wrap;html=1;strokeColor=#333333;fillColor=#222222;strokeWidth=0.2;movable=1;resizable=1;rotatable=1;deletable=1;editable=1;locked=0;connectable=1;" parent="9eh16xiQdjSHdPkHuFP6-605" vertex="1">
          <mxGeometry x="4.5" y="4.099999999999994" width="22" height="1" as="geometry" />
        </mxCell>
        <mxCell id="9eh16xiQdjSHdPkHuFP6-616" value="" style="rounded=0;whiteSpace=wrap;html=1;strokeColor=#333333;fillColor=#222222;strokeWidth=0.2;movable=1;resizable=1;rotatable=1;deletable=1;editable=1;locked=0;connectable=1;" parent="9eh16xiQdjSHdPkHuFP6-605" vertex="1">
          <mxGeometry x="4.5" y="5.299999999999983" width="22" height="1" as="geometry" />
        </mxCell>
        <mxCell id="9eh16xiQdjSHdPkHuFP6-617" value="" style="rounded=0;whiteSpace=wrap;html=1;strokeColor=none;fillColor=#333333;strokeWidth=0.5;movable=1;resizable=1;rotatable=1;deletable=1;editable=1;locked=0;connectable=1;" parent="9eh16xiQdjSHdPkHuFP6-605" vertex="1">
          <mxGeometry x="19" y="1" width="1" height="6" as="geometry" />
        </mxCell>
        <mxCell id="9eh16xiQdjSHdPkHuFP6-618" value="" style="rounded=0;whiteSpace=wrap;html=1;strokeColor=none;fillColor=#333333;strokeWidth=0.5;movable=1;resizable=1;rotatable=1;deletable=1;editable=1;locked=0;connectable=1;" parent="9eh16xiQdjSHdPkHuFP6-605" vertex="1">
          <mxGeometry x="11" y="1" width="1" height="6" as="geometry" />
        </mxCell>
        <mxCell id="9eh16xiQdjSHdPkHuFP6-619" value="" style="shape=or;whiteSpace=wrap;html=1;fillColor=#0050ef;fontColor=#ffffff;strokeColor=none;movable=1;resizable=1;rotatable=1;deletable=1;editable=1;locked=0;connectable=1;" parent="9eh16xiQdjSHdPkHuFP6-605" vertex="1">
          <mxGeometry x="31" y="2" width="1" height="4" as="geometry" />
        </mxCell>
        <mxCell id="9eh16xiQdjSHdPkHuFP6-620" value="" style="rounded=0;whiteSpace=wrap;html=1;strokeColor=#aaaaaa;fillColor=#bfbfbf;strokeWidth=0.5;movable=1;resizable=1;rotatable=1;deletable=1;editable=1;locked=0;connectable=1;" parent="9eh16xiQdjSHdPkHuFP6-377" vertex="1">
          <mxGeometry x="1" y="12" width="3" height="20" as="geometry" />
        </mxCell>
        <mxCell id="9eh16xiQdjSHdPkHuFP6-621" value="" style="rounded=0;whiteSpace=wrap;html=1;strokeColor=#aaaaaa;fillColor=#bfbfbf;strokeWidth=0.5;movable=1;resizable=1;rotatable=1;deletable=1;editable=1;locked=0;connectable=1;" parent="9eh16xiQdjSHdPkHuFP6-377" vertex="1">
          <mxGeometry x="156" y="13" width="3" height="20" as="geometry" />
        </mxCell>
        <mxCell id="9eh16xiQdjSHdPkHuFP6-622" value="" style="group;aspect=fixed;movable=1;resizable=1;rotatable=1;deletable=1;editable=1;locked=0;connectable=1;" parent="9eh16xiQdjSHdPkHuFP6-377" vertex="1" connectable="0">
          <mxGeometry x="0.5" y="6" width="3" height="1.5" as="geometry" />
        </mxCell>
        <mxCell id="9eh16xiQdjSHdPkHuFP6-623" value="" style="ellipse;whiteSpace=wrap;html=1;aspect=fixed;strokeColor=none;fillColor=#222222;movable=1;resizable=1;rotatable=1;deletable=1;editable=1;locked=0;connectable=1;" parent="9eh16xiQdjSHdPkHuFP6-622" vertex="1">
          <mxGeometry width="1.5" height="1.5" as="geometry" />
        </mxCell>
        <mxCell id="9eh16xiQdjSHdPkHuFP6-624" value="" style="ellipse;whiteSpace=wrap;html=1;aspect=fixed;strokeColor=none;fillColor=#222222;movable=1;resizable=1;rotatable=1;deletable=1;editable=1;locked=0;connectable=1;" parent="9eh16xiQdjSHdPkHuFP6-622" vertex="1">
          <mxGeometry x="1.5" width="1.5" height="1.5" as="geometry" />
        </mxCell>
        <mxCell id="9eh16xiQdjSHdPkHuFP6-625" value="" style="rounded=0;whiteSpace=wrap;html=1;strokeColor=none;fillColor=#222222;strokeWidth=0.2;movable=1;resizable=1;rotatable=1;deletable=1;editable=1;locked=0;connectable=1;" parent="9eh16xiQdjSHdPkHuFP6-622" vertex="1">
          <mxGeometry x="0.75" width="1.4249999999999998" height="1.5" as="geometry" />
        </mxCell>
        <mxCell id="9eh16xiQdjSHdPkHuFP6-626" value="" style="group;aspect=fixed;movable=1;resizable=1;rotatable=1;deletable=1;editable=1;locked=0;connectable=1;" parent="9eh16xiQdjSHdPkHuFP6-377" vertex="1" connectable="0">
          <mxGeometry x="156.5" y="6" width="3" height="1.5" as="geometry" />
        </mxCell>
        <mxCell id="9eh16xiQdjSHdPkHuFP6-627" value="" style="ellipse;whiteSpace=wrap;html=1;aspect=fixed;strokeColor=none;fillColor=#222222;movable=1;resizable=1;rotatable=1;deletable=1;editable=1;locked=0;connectable=1;" parent="9eh16xiQdjSHdPkHuFP6-626" vertex="1">
          <mxGeometry width="1.5" height="1.5" as="geometry" />
        </mxCell>
        <mxCell id="9eh16xiQdjSHdPkHuFP6-628" value="" style="ellipse;whiteSpace=wrap;html=1;aspect=fixed;strokeColor=none;fillColor=#222222;movable=1;resizable=1;rotatable=1;deletable=1;editable=1;locked=0;connectable=1;" parent="9eh16xiQdjSHdPkHuFP6-626" vertex="1">
          <mxGeometry x="1.5" width="1.5" height="1.5" as="geometry" />
        </mxCell>
        <mxCell id="9eh16xiQdjSHdPkHuFP6-629" value="" style="rounded=0;whiteSpace=wrap;html=1;strokeColor=none;fillColor=#222222;strokeWidth=0.2;movable=1;resizable=1;rotatable=1;deletable=1;editable=1;locked=0;connectable=1;" parent="9eh16xiQdjSHdPkHuFP6-626" vertex="1">
          <mxGeometry x="0.75" width="1.4249999999999998" height="1.5" as="geometry" />
        </mxCell>
        <mxCell id="9eh16xiQdjSHdPkHuFP6-630" value="" style="group;aspect=fixed;movable=1;resizable=1;rotatable=1;deletable=1;editable=1;locked=0;connectable=1;" parent="9eh16xiQdjSHdPkHuFP6-377" vertex="1" connectable="0">
          <mxGeometry x="0.5" y="37" width="3" height="1.5" as="geometry" />
        </mxCell>
        <mxCell id="9eh16xiQdjSHdPkHuFP6-631" value="" style="ellipse;whiteSpace=wrap;html=1;aspect=fixed;strokeColor=none;fillColor=#222222;movable=1;resizable=1;rotatable=1;deletable=1;editable=1;locked=0;connectable=1;" parent="9eh16xiQdjSHdPkHuFP6-630" vertex="1">
          <mxGeometry width="1.5" height="1.5" as="geometry" />
        </mxCell>
        <mxCell id="9eh16xiQdjSHdPkHuFP6-632" value="" style="ellipse;whiteSpace=wrap;html=1;aspect=fixed;strokeColor=none;fillColor=#222222;movable=1;resizable=1;rotatable=1;deletable=1;editable=1;locked=0;connectable=1;" parent="9eh16xiQdjSHdPkHuFP6-630" vertex="1">
          <mxGeometry x="1.5" width="1.5" height="1.5" as="geometry" />
        </mxCell>
        <mxCell id="9eh16xiQdjSHdPkHuFP6-633" value="" style="rounded=0;whiteSpace=wrap;html=1;strokeColor=none;fillColor=#222222;strokeWidth=0.2;movable=1;resizable=1;rotatable=1;deletable=1;editable=1;locked=0;connectable=1;" parent="9eh16xiQdjSHdPkHuFP6-630" vertex="1">
          <mxGeometry x="0.75" width="1.4249999999999998" height="1.5" as="geometry" />
        </mxCell>
        <mxCell id="9eh16xiQdjSHdPkHuFP6-634" value="" style="group;aspect=fixed;movable=1;resizable=1;rotatable=1;deletable=1;editable=1;locked=0;connectable=1;" parent="9eh16xiQdjSHdPkHuFP6-377" vertex="1" connectable="0">
          <mxGeometry x="156.5" y="37" width="3" height="1.5" as="geometry" />
        </mxCell>
        <mxCell id="9eh16xiQdjSHdPkHuFP6-635" value="" style="ellipse;whiteSpace=wrap;html=1;aspect=fixed;strokeColor=none;fillColor=#222222;movable=1;resizable=1;rotatable=1;deletable=1;editable=1;locked=0;connectable=1;" parent="9eh16xiQdjSHdPkHuFP6-634" vertex="1">
          <mxGeometry width="1.5" height="1.5" as="geometry" />
        </mxCell>
        <mxCell id="9eh16xiQdjSHdPkHuFP6-636" value="" style="ellipse;whiteSpace=wrap;html=1;aspect=fixed;strokeColor=none;fillColor=#222222;movable=1;resizable=1;rotatable=1;deletable=1;editable=1;locked=0;connectable=1;" parent="9eh16xiQdjSHdPkHuFP6-634" vertex="1">
          <mxGeometry x="1.5" width="1.5" height="1.5" as="geometry" />
        </mxCell>
        <mxCell id="9eh16xiQdjSHdPkHuFP6-637" value="" style="rounded=0;whiteSpace=wrap;html=1;strokeColor=none;fillColor=#222222;strokeWidth=0.2;movable=1;resizable=1;rotatable=1;deletable=1;editable=1;locked=0;connectable=1;" parent="9eh16xiQdjSHdPkHuFP6-634" vertex="1">
          <mxGeometry x="0.75" width="1.4249999999999998" height="1.5" as="geometry" />
        </mxCell>
        <mxCell id="9eh16xiQdjSHdPkHuFP6-638" value="" style="rounded=0;whiteSpace=wrap;html=1;strokeColor=none;fillColor=#333333;strokeWidth=0.5;container=0;movable=1;resizable=1;rotatable=1;deletable=1;editable=1;locked=0;connectable=1;" parent="9eh16xiQdjSHdPkHuFP6-377" vertex="1">
          <mxGeometry x="118" y="0.25" width="37.75" height="5.75" as="geometry" />
        </mxCell>
        <mxCell id="9eh16xiQdjSHdPkHuFP6-639" value="" style="rounded=0;whiteSpace=wrap;html=1;strokeColor=none;fillColor=#333333;strokeWidth=0.5;container=0;movable=1;resizable=1;rotatable=1;deletable=1;editable=1;locked=0;connectable=1;" parent="9eh16xiQdjSHdPkHuFP6-377" vertex="1">
          <mxGeometry x="79.92000000000007" y="0.25" width="37.75" height="5.75" as="geometry" />
        </mxCell>
        <mxCell id="9eh16xiQdjSHdPkHuFP6-640" value="" style="rounded=0;whiteSpace=wrap;html=1;strokeColor=#333333;fillColor=#222222;strokeWidth=0.5;movable=1;resizable=1;rotatable=1;deletable=1;editable=1;locked=0;connectable=1;" parent="9eh16xiQdjSHdPkHuFP6-377" vertex="1">
          <mxGeometry x="119.11999999999989" y="0.5" width="2.5" height="2.5" as="geometry" />
        </mxCell>
        <mxCell id="9eh16xiQdjSHdPkHuFP6-641" value="" style="rounded=0;whiteSpace=wrap;html=1;strokeColor=#333333;fillColor=#222222;strokeWidth=0.5;movable=1;resizable=1;rotatable=1;deletable=1;editable=1;locked=0;connectable=1;" parent="9eh16xiQdjSHdPkHuFP6-377" vertex="1">
          <mxGeometry x="119.11999999999989" y="3.25" width="2.5" height="2.5" as="geometry" />
        </mxCell>
        <mxCell id="9eh16xiQdjSHdPkHuFP6-642" value="" style="rounded=0;whiteSpace=wrap;html=1;strokeColor=#333333;fillColor=#222222;strokeWidth=0.5;movable=1;resizable=1;rotatable=1;deletable=1;editable=1;locked=0;connectable=1;" parent="9eh16xiQdjSHdPkHuFP6-377" vertex="1">
          <mxGeometry x="121.86999999999989" y="0.5" width="2.5" height="2.5" as="geometry" />
        </mxCell>
        <mxCell id="9eh16xiQdjSHdPkHuFP6-643" value="" style="rounded=0;whiteSpace=wrap;html=1;strokeColor=#333333;fillColor=#222222;strokeWidth=0.5;movable=1;resizable=1;rotatable=1;deletable=1;editable=1;locked=0;connectable=1;" parent="9eh16xiQdjSHdPkHuFP6-377" vertex="1">
          <mxGeometry x="121.86999999999989" y="3.25" width="2.5" height="2.5" as="geometry" />
        </mxCell>
        <mxCell id="9eh16xiQdjSHdPkHuFP6-644" value="" style="rounded=0;whiteSpace=wrap;html=1;strokeColor=#333333;fillColor=#222222;strokeWidth=0.5;movable=1;resizable=1;rotatable=1;deletable=1;editable=1;locked=0;connectable=1;" parent="9eh16xiQdjSHdPkHuFP6-377" vertex="1">
          <mxGeometry x="124.61999999999989" y="0.5" width="2.5" height="2.5" as="geometry" />
        </mxCell>
        <mxCell id="9eh16xiQdjSHdPkHuFP6-645" value="" style="rounded=0;whiteSpace=wrap;html=1;strokeColor=#333333;fillColor=#222222;strokeWidth=0.5;movable=1;resizable=1;rotatable=1;deletable=1;editable=1;locked=0;connectable=1;" parent="9eh16xiQdjSHdPkHuFP6-377" vertex="1">
          <mxGeometry x="124.61999999999989" y="3.25" width="2.5" height="2.5" as="geometry" />
        </mxCell>
        <mxCell id="9eh16xiQdjSHdPkHuFP6-646" value="" style="rounded=0;whiteSpace=wrap;html=1;strokeColor=#333333;fillColor=#222222;strokeWidth=0.5;movable=1;resizable=1;rotatable=1;deletable=1;editable=1;locked=0;connectable=1;" parent="9eh16xiQdjSHdPkHuFP6-377" vertex="1">
          <mxGeometry x="127.36999999999989" y="0.5" width="2.5" height="2.5" as="geometry" />
        </mxCell>
        <mxCell id="9eh16xiQdjSHdPkHuFP6-647" value="" style="rounded=0;whiteSpace=wrap;html=1;strokeColor=#333333;fillColor=#222222;strokeWidth=0.5;movable=1;resizable=1;rotatable=1;deletable=1;editable=1;locked=0;connectable=1;" parent="9eh16xiQdjSHdPkHuFP6-377" vertex="1">
          <mxGeometry x="127.36999999999989" y="3.25" width="2.5" height="2.5" as="geometry" />
        </mxCell>
        <mxCell id="9eh16xiQdjSHdPkHuFP6-648" value="" style="rounded=0;whiteSpace=wrap;html=1;strokeColor=#333333;fillColor=#222222;strokeWidth=0.5;movable=1;resizable=1;rotatable=1;deletable=1;editable=1;locked=0;connectable=1;" parent="9eh16xiQdjSHdPkHuFP6-377" vertex="1">
          <mxGeometry x="130.1199999999999" y="0.5" width="2.5" height="2.5" as="geometry" />
        </mxCell>
        <mxCell id="9eh16xiQdjSHdPkHuFP6-649" value="" style="rounded=0;whiteSpace=wrap;html=1;strokeColor=#333333;fillColor=#222222;strokeWidth=0.5;movable=1;resizable=1;rotatable=1;deletable=1;editable=1;locked=0;connectable=1;" parent="9eh16xiQdjSHdPkHuFP6-377" vertex="1">
          <mxGeometry x="130.1199999999999" y="3.25" width="2.5" height="2.5" as="geometry" />
        </mxCell>
        <mxCell id="9eh16xiQdjSHdPkHuFP6-650" value="" style="rounded=0;whiteSpace=wrap;html=1;strokeColor=#333333;fillColor=#222222;strokeWidth=0.5;movable=1;resizable=1;rotatable=1;deletable=1;editable=1;locked=0;connectable=1;" parent="9eh16xiQdjSHdPkHuFP6-377" vertex="1">
          <mxGeometry x="132.8699999999999" y="0.5" width="2.5" height="2.5" as="geometry" />
        </mxCell>
        <mxCell id="9eh16xiQdjSHdPkHuFP6-651" value="" style="rounded=0;whiteSpace=wrap;html=1;strokeColor=#333333;fillColor=#222222;strokeWidth=0.5;movable=1;resizable=1;rotatable=1;deletable=1;editable=1;locked=0;connectable=1;" parent="9eh16xiQdjSHdPkHuFP6-377" vertex="1">
          <mxGeometry x="132.8699999999999" y="3.25" width="2.5" height="2.5" as="geometry" />
        </mxCell>
        <mxCell id="9eh16xiQdjSHdPkHuFP6-652" value="" style="rounded=0;whiteSpace=wrap;html=1;strokeColor=#333333;fillColor=#222222;strokeWidth=0.5;movable=1;resizable=1;rotatable=1;deletable=1;editable=1;locked=0;connectable=1;" parent="9eh16xiQdjSHdPkHuFP6-377" vertex="1">
          <mxGeometry x="135.6199999999999" y="0.5" width="2.5" height="2.5" as="geometry" />
        </mxCell>
        <mxCell id="9eh16xiQdjSHdPkHuFP6-653" value="" style="rounded=0;whiteSpace=wrap;html=1;strokeColor=#333333;fillColor=#222222;strokeWidth=0.5;movable=1;resizable=1;rotatable=1;deletable=1;editable=1;locked=0;connectable=1;" parent="9eh16xiQdjSHdPkHuFP6-377" vertex="1">
          <mxGeometry x="135.6199999999999" y="3.25" width="2.5" height="2.5" as="geometry" />
        </mxCell>
        <mxCell id="9eh16xiQdjSHdPkHuFP6-654" value="" style="rounded=0;whiteSpace=wrap;html=1;strokeColor=#333333;fillColor=#222222;strokeWidth=0.5;movable=1;resizable=1;rotatable=1;deletable=1;editable=1;locked=0;connectable=1;" parent="9eh16xiQdjSHdPkHuFP6-377" vertex="1">
          <mxGeometry x="138.3699999999999" y="0.5" width="2.5" height="2.5" as="geometry" />
        </mxCell>
        <mxCell id="9eh16xiQdjSHdPkHuFP6-655" value="" style="rounded=0;whiteSpace=wrap;html=1;strokeColor=#333333;fillColor=#222222;strokeWidth=0.5;movable=1;resizable=1;rotatable=1;deletable=1;editable=1;locked=0;connectable=1;" parent="9eh16xiQdjSHdPkHuFP6-377" vertex="1">
          <mxGeometry x="138.3699999999999" y="3.25" width="2.5" height="2.5" as="geometry" />
        </mxCell>
        <mxCell id="9eh16xiQdjSHdPkHuFP6-656" value="" style="rounded=0;whiteSpace=wrap;html=1;strokeColor=#333333;fillColor=#222222;strokeWidth=0.5;movable=1;resizable=1;rotatable=1;deletable=1;editable=1;locked=0;connectable=1;" parent="9eh16xiQdjSHdPkHuFP6-377" vertex="1">
          <mxGeometry x="141.1199999999999" y="0.5" width="2.5" height="2.5" as="geometry" />
        </mxCell>
        <mxCell id="9eh16xiQdjSHdPkHuFP6-657" value="" style="rounded=0;whiteSpace=wrap;html=1;strokeColor=#333333;fillColor=#222222;strokeWidth=0.5;movable=1;resizable=1;rotatable=1;deletable=1;editable=1;locked=0;connectable=1;" parent="9eh16xiQdjSHdPkHuFP6-377" vertex="1">
          <mxGeometry x="141.1199999999999" y="3.25" width="2.5" height="2.5" as="geometry" />
        </mxCell>
        <mxCell id="9eh16xiQdjSHdPkHuFP6-658" value="" style="rounded=0;whiteSpace=wrap;html=1;strokeColor=#333333;fillColor=#222222;strokeWidth=0.5;movable=1;resizable=1;rotatable=1;deletable=1;editable=1;locked=0;connectable=1;" parent="9eh16xiQdjSHdPkHuFP6-377" vertex="1">
          <mxGeometry x="143.8699999999999" y="0.5" width="2.5" height="2.5" as="geometry" />
        </mxCell>
        <mxCell id="9eh16xiQdjSHdPkHuFP6-659" value="" style="rounded=0;whiteSpace=wrap;html=1;strokeColor=#333333;fillColor=#222222;strokeWidth=0.5;movable=1;resizable=1;rotatable=1;deletable=1;editable=1;locked=0;connectable=1;" parent="9eh16xiQdjSHdPkHuFP6-377" vertex="1">
          <mxGeometry x="143.8699999999999" y="3.25" width="2.5" height="2.5" as="geometry" />
        </mxCell>
        <mxCell id="9eh16xiQdjSHdPkHuFP6-660" value="" style="rounded=0;whiteSpace=wrap;html=1;strokeColor=#333333;fillColor=#222222;strokeWidth=0.5;movable=1;resizable=1;rotatable=1;deletable=1;editable=1;locked=0;connectable=1;" parent="9eh16xiQdjSHdPkHuFP6-377" vertex="1">
          <mxGeometry x="146.6199999999999" y="0.5" width="2.5" height="2.5" as="geometry" />
        </mxCell>
        <mxCell id="9eh16xiQdjSHdPkHuFP6-661" value="" style="rounded=0;whiteSpace=wrap;html=1;strokeColor=#333333;fillColor=#222222;strokeWidth=0.5;movable=1;resizable=1;rotatable=1;deletable=1;editable=1;locked=0;connectable=1;" parent="9eh16xiQdjSHdPkHuFP6-377" vertex="1">
          <mxGeometry x="146.6199999999999" y="3.25" width="2.5" height="2.5" as="geometry" />
        </mxCell>
        <mxCell id="9eh16xiQdjSHdPkHuFP6-662" value="" style="rounded=0;whiteSpace=wrap;html=1;strokeColor=#333333;fillColor=#222222;strokeWidth=0.5;movable=1;resizable=1;rotatable=1;deletable=1;editable=1;locked=0;connectable=1;" parent="9eh16xiQdjSHdPkHuFP6-377" vertex="1">
          <mxGeometry x="149.3699999999999" y="0.5" width="2.5" height="2.5" as="geometry" />
        </mxCell>
        <mxCell id="9eh16xiQdjSHdPkHuFP6-663" value="" style="rounded=0;whiteSpace=wrap;html=1;strokeColor=#333333;fillColor=#222222;strokeWidth=0.5;movable=1;resizable=1;rotatable=1;deletable=1;editable=1;locked=0;connectable=1;" parent="9eh16xiQdjSHdPkHuFP6-377" vertex="1">
          <mxGeometry x="149.3699999999999" y="3.25" width="2.5" height="2.5" as="geometry" />
        </mxCell>
        <mxCell id="9eh16xiQdjSHdPkHuFP6-664" value="" style="rounded=0;whiteSpace=wrap;html=1;strokeColor=#333333;fillColor=#222222;strokeWidth=0.5;movable=1;resizable=1;rotatable=1;deletable=1;editable=1;locked=0;connectable=1;" parent="9eh16xiQdjSHdPkHuFP6-377" vertex="1">
          <mxGeometry x="152.1199999999999" y="0.5" width="2.5" height="2.5" as="geometry" />
        </mxCell>
        <mxCell id="9eh16xiQdjSHdPkHuFP6-665" value="" style="rounded=0;whiteSpace=wrap;html=1;strokeColor=#333333;fillColor=#222222;strokeWidth=0.5;movable=1;resizable=1;rotatable=1;deletable=1;editable=1;locked=0;connectable=1;" parent="9eh16xiQdjSHdPkHuFP6-377" vertex="1">
          <mxGeometry x="152.1199999999999" y="3.25" width="2.5" height="2.5" as="geometry" />
        </mxCell>
        <mxCell id="9eh16xiQdjSHdPkHuFP6-666" value="" style="rounded=0;whiteSpace=wrap;html=1;strokeColor=#333333;fillColor=#222222;strokeWidth=0.5;movable=1;resizable=1;rotatable=1;deletable=1;editable=1;locked=0;connectable=1;" parent="9eh16xiQdjSHdPkHuFP6-377" vertex="1">
          <mxGeometry x="81.04999999999973" y="0.5" width="2.5" height="2.5" as="geometry" />
        </mxCell>
        <mxCell id="9eh16xiQdjSHdPkHuFP6-667" value="" style="rounded=0;whiteSpace=wrap;html=1;strokeColor=#333333;fillColor=#222222;strokeWidth=0.5;movable=1;resizable=1;rotatable=1;deletable=1;editable=1;locked=0;connectable=1;" parent="9eh16xiQdjSHdPkHuFP6-377" vertex="1">
          <mxGeometry x="81.04999999999973" y="3.25" width="2.5" height="2.5" as="geometry" />
        </mxCell>
        <mxCell id="9eh16xiQdjSHdPkHuFP6-668" value="" style="rounded=0;whiteSpace=wrap;html=1;strokeColor=#333333;fillColor=#222222;strokeWidth=0.5;movable=1;resizable=1;rotatable=1;deletable=1;editable=1;locked=0;connectable=1;" parent="9eh16xiQdjSHdPkHuFP6-377" vertex="1">
          <mxGeometry x="83.79999999999973" y="0.5" width="2.5" height="2.5" as="geometry" />
        </mxCell>
        <mxCell id="9eh16xiQdjSHdPkHuFP6-669" value="" style="rounded=0;whiteSpace=wrap;html=1;strokeColor=#333333;fillColor=#222222;strokeWidth=0.5;movable=1;resizable=1;rotatable=1;deletable=1;editable=1;locked=0;connectable=1;" parent="9eh16xiQdjSHdPkHuFP6-377" vertex="1">
          <mxGeometry x="83.79999999999973" y="3.25" width="2.5" height="2.5" as="geometry" />
        </mxCell>
        <mxCell id="9eh16xiQdjSHdPkHuFP6-670" value="" style="rounded=0;whiteSpace=wrap;html=1;strokeColor=#333333;fillColor=#222222;strokeWidth=0.5;movable=1;resizable=1;rotatable=1;deletable=1;editable=1;locked=0;connectable=1;" parent="9eh16xiQdjSHdPkHuFP6-377" vertex="1">
          <mxGeometry x="86.54999999999973" y="0.5" width="2.5" height="2.5" as="geometry" />
        </mxCell>
        <mxCell id="9eh16xiQdjSHdPkHuFP6-671" value="" style="rounded=0;whiteSpace=wrap;html=1;strokeColor=#333333;fillColor=#222222;strokeWidth=0.5;movable=1;resizable=1;rotatable=1;deletable=1;editable=1;locked=0;connectable=1;" parent="9eh16xiQdjSHdPkHuFP6-377" vertex="1">
          <mxGeometry x="86.54999999999973" y="3.25" width="2.5" height="2.5" as="geometry" />
        </mxCell>
        <mxCell id="9eh16xiQdjSHdPkHuFP6-672" value="" style="rounded=0;whiteSpace=wrap;html=1;strokeColor=#333333;fillColor=#222222;strokeWidth=0.5;movable=1;resizable=1;rotatable=1;deletable=1;editable=1;locked=0;connectable=1;" parent="9eh16xiQdjSHdPkHuFP6-377" vertex="1">
          <mxGeometry x="89.29999999999973" y="0.5" width="2.5" height="2.5" as="geometry" />
        </mxCell>
        <mxCell id="9eh16xiQdjSHdPkHuFP6-673" value="" style="rounded=0;whiteSpace=wrap;html=1;strokeColor=#333333;fillColor=#222222;strokeWidth=0.5;movable=1;resizable=1;rotatable=1;deletable=1;editable=1;locked=0;connectable=1;" parent="9eh16xiQdjSHdPkHuFP6-377" vertex="1">
          <mxGeometry x="89.29999999999973" y="3.25" width="2.5" height="2.5" as="geometry" />
        </mxCell>
        <mxCell id="9eh16xiQdjSHdPkHuFP6-674" value="" style="rounded=0;whiteSpace=wrap;html=1;strokeColor=#333333;fillColor=#222222;strokeWidth=0.5;movable=1;resizable=1;rotatable=1;deletable=1;editable=1;locked=0;connectable=1;" parent="9eh16xiQdjSHdPkHuFP6-377" vertex="1">
          <mxGeometry x="92.04999999999973" y="0.5" width="2.5" height="2.5" as="geometry" />
        </mxCell>
        <mxCell id="9eh16xiQdjSHdPkHuFP6-675" value="" style="rounded=0;whiteSpace=wrap;html=1;strokeColor=#333333;fillColor=#222222;strokeWidth=0.5;movable=1;resizable=1;rotatable=1;deletable=1;editable=1;locked=0;connectable=1;" parent="9eh16xiQdjSHdPkHuFP6-377" vertex="1">
          <mxGeometry x="92.04999999999973" y="3.25" width="2.5" height="2.5" as="geometry" />
        </mxCell>
        <mxCell id="9eh16xiQdjSHdPkHuFP6-676" value="" style="rounded=0;whiteSpace=wrap;html=1;strokeColor=#333333;fillColor=#222222;strokeWidth=0.5;movable=1;resizable=1;rotatable=1;deletable=1;editable=1;locked=0;connectable=1;" parent="9eh16xiQdjSHdPkHuFP6-377" vertex="1">
          <mxGeometry x="94.79999999999973" y="0.5" width="2.5" height="2.5" as="geometry" />
        </mxCell>
        <mxCell id="9eh16xiQdjSHdPkHuFP6-677" value="" style="rounded=0;whiteSpace=wrap;html=1;strokeColor=#333333;fillColor=#222222;strokeWidth=0.5;movable=1;resizable=1;rotatable=1;deletable=1;editable=1;locked=0;connectable=1;" parent="9eh16xiQdjSHdPkHuFP6-377" vertex="1">
          <mxGeometry x="94.79999999999973" y="3.25" width="2.5" height="2.5" as="geometry" />
        </mxCell>
        <mxCell id="9eh16xiQdjSHdPkHuFP6-678" value="" style="rounded=0;whiteSpace=wrap;html=1;strokeColor=#333333;fillColor=#222222;strokeWidth=0.5;movable=1;resizable=1;rotatable=1;deletable=1;editable=1;locked=0;connectable=1;" parent="9eh16xiQdjSHdPkHuFP6-377" vertex="1">
          <mxGeometry x="97.54999999999973" y="0.5" width="2.5" height="2.5" as="geometry" />
        </mxCell>
        <mxCell id="9eh16xiQdjSHdPkHuFP6-679" value="" style="rounded=0;whiteSpace=wrap;html=1;strokeColor=#333333;fillColor=#222222;strokeWidth=0.5;movable=1;resizable=1;rotatable=1;deletable=1;editable=1;locked=0;connectable=1;" parent="9eh16xiQdjSHdPkHuFP6-377" vertex="1">
          <mxGeometry x="97.54999999999973" y="3.25" width="2.5" height="2.5" as="geometry" />
        </mxCell>
        <mxCell id="9eh16xiQdjSHdPkHuFP6-680" value="" style="rounded=0;whiteSpace=wrap;html=1;strokeColor=#333333;fillColor=#222222;strokeWidth=0.5;movable=1;resizable=1;rotatable=1;deletable=1;editable=1;locked=0;connectable=1;" parent="9eh16xiQdjSHdPkHuFP6-377" vertex="1">
          <mxGeometry x="100.29999999999973" y="0.5" width="2.5" height="2.5" as="geometry" />
        </mxCell>
        <mxCell id="9eh16xiQdjSHdPkHuFP6-681" value="" style="rounded=0;whiteSpace=wrap;html=1;strokeColor=#333333;fillColor=#222222;strokeWidth=0.5;movable=1;resizable=1;rotatable=1;deletable=1;editable=1;locked=0;connectable=1;" parent="9eh16xiQdjSHdPkHuFP6-377" vertex="1">
          <mxGeometry x="100.29999999999973" y="3.25" width="2.5" height="2.5" as="geometry" />
        </mxCell>
        <mxCell id="9eh16xiQdjSHdPkHuFP6-682" value="" style="rounded=0;whiteSpace=wrap;html=1;strokeColor=#333333;fillColor=#222222;strokeWidth=0.5;movable=1;resizable=1;rotatable=1;deletable=1;editable=1;locked=0;connectable=1;" parent="9eh16xiQdjSHdPkHuFP6-377" vertex="1">
          <mxGeometry x="103.04999999999973" y="0.5" width="2.5" height="2.5" as="geometry" />
        </mxCell>
        <mxCell id="9eh16xiQdjSHdPkHuFP6-683" value="" style="rounded=0;whiteSpace=wrap;html=1;strokeColor=#333333;fillColor=#222222;strokeWidth=0.5;movable=1;resizable=1;rotatable=1;deletable=1;editable=1;locked=0;connectable=1;" parent="9eh16xiQdjSHdPkHuFP6-377" vertex="1">
          <mxGeometry x="103.04999999999973" y="3.25" width="2.5" height="2.5" as="geometry" />
        </mxCell>
        <mxCell id="9eh16xiQdjSHdPkHuFP6-684" value="" style="rounded=0;whiteSpace=wrap;html=1;strokeColor=#333333;fillColor=#222222;strokeWidth=0.5;movable=1;resizable=1;rotatable=1;deletable=1;editable=1;locked=0;connectable=1;" parent="9eh16xiQdjSHdPkHuFP6-377" vertex="1">
          <mxGeometry x="105.79999999999973" y="0.5" width="2.5" height="2.5" as="geometry" />
        </mxCell>
        <mxCell id="9eh16xiQdjSHdPkHuFP6-685" value="" style="rounded=0;whiteSpace=wrap;html=1;strokeColor=#333333;fillColor=#222222;strokeWidth=0.5;movable=1;resizable=1;rotatable=1;deletable=1;editable=1;locked=0;connectable=1;" parent="9eh16xiQdjSHdPkHuFP6-377" vertex="1">
          <mxGeometry x="105.79999999999973" y="3.25" width="2.5" height="2.5" as="geometry" />
        </mxCell>
        <mxCell id="9eh16xiQdjSHdPkHuFP6-686" value="" style="rounded=0;whiteSpace=wrap;html=1;strokeColor=#333333;fillColor=#222222;strokeWidth=0.5;movable=1;resizable=1;rotatable=1;deletable=1;editable=1;locked=0;connectable=1;" parent="9eh16xiQdjSHdPkHuFP6-377" vertex="1">
          <mxGeometry x="108.54999999999973" y="0.5" width="2.5" height="2.5" as="geometry" />
        </mxCell>
        <mxCell id="9eh16xiQdjSHdPkHuFP6-687" value="" style="rounded=0;whiteSpace=wrap;html=1;strokeColor=#333333;fillColor=#222222;strokeWidth=0.5;movable=1;resizable=1;rotatable=1;deletable=1;editable=1;locked=0;connectable=1;" parent="9eh16xiQdjSHdPkHuFP6-377" vertex="1">
          <mxGeometry x="108.54999999999973" y="3.25" width="2.5" height="2.5" as="geometry" />
        </mxCell>
        <mxCell id="9eh16xiQdjSHdPkHuFP6-688" value="" style="rounded=0;whiteSpace=wrap;html=1;strokeColor=#333333;fillColor=#222222;strokeWidth=0.5;movable=1;resizable=1;rotatable=1;deletable=1;editable=1;locked=0;connectable=1;" parent="9eh16xiQdjSHdPkHuFP6-377" vertex="1">
          <mxGeometry x="111.29999999999973" y="0.5" width="2.5" height="2.5" as="geometry" />
        </mxCell>
        <mxCell id="9eh16xiQdjSHdPkHuFP6-689" value="" style="rounded=0;whiteSpace=wrap;html=1;strokeColor=#333333;fillColor=#222222;strokeWidth=0.5;movable=1;resizable=1;rotatable=1;deletable=1;editable=1;locked=0;connectable=1;" parent="9eh16xiQdjSHdPkHuFP6-377" vertex="1">
          <mxGeometry x="111.29999999999973" y="3.25" width="2.5" height="2.5" as="geometry" />
        </mxCell>
        <mxCell id="9eh16xiQdjSHdPkHuFP6-690" value="" style="rounded=0;whiteSpace=wrap;html=1;strokeColor=#333333;fillColor=#222222;strokeWidth=0.5;movable=1;resizable=1;rotatable=1;deletable=1;editable=1;locked=0;connectable=1;" parent="9eh16xiQdjSHdPkHuFP6-377" vertex="1">
          <mxGeometry x="114.04999999999973" y="0.5" width="2.5" height="2.5" as="geometry" />
        </mxCell>
        <mxCell id="9eh16xiQdjSHdPkHuFP6-691" value="" style="rounded=0;whiteSpace=wrap;html=1;strokeColor=#333333;fillColor=#222222;strokeWidth=0.5;movable=1;resizable=1;rotatable=1;deletable=1;editable=1;locked=0;connectable=1;" parent="9eh16xiQdjSHdPkHuFP6-377" vertex="1">
          <mxGeometry x="114.04999999999973" y="3.25" width="2.5" height="2.5" as="geometry" />
        </mxCell>
        <mxCell id="9eh16xiQdjSHdPkHuFP6-692" value="" style="rounded=0;whiteSpace=wrap;html=1;strokeColor=none;fillColor=#333333;strokeWidth=0.5;container=0;movable=1;resizable=1;rotatable=1;deletable=1;editable=1;locked=0;connectable=1;" parent="9eh16xiQdjSHdPkHuFP6-377" vertex="1">
          <mxGeometry x="4.25" y="0.25" width="46.75" height="5.75" as="geometry" />
        </mxCell>
        <mxCell id="9eh16xiQdjSHdPkHuFP6-693" value="" style="rounded=0;whiteSpace=wrap;html=1;strokeColor=#333333;fillColor=#222222;strokeWidth=0.5;movable=1;resizable=1;rotatable=1;deletable=1;editable=1;locked=0;connectable=1;" parent="9eh16xiQdjSHdPkHuFP6-377" vertex="1">
          <mxGeometry x="5.749999999999773" y="0.5" width="2.5" height="2.5" as="geometry" />
        </mxCell>
        <mxCell id="9eh16xiQdjSHdPkHuFP6-694" value="" style="rounded=0;whiteSpace=wrap;html=1;strokeColor=#333333;fillColor=#222222;strokeWidth=0.5;movable=1;resizable=1;rotatable=1;deletable=1;editable=1;locked=0;connectable=1;" parent="9eh16xiQdjSHdPkHuFP6-377" vertex="1">
          <mxGeometry x="5.749999999999773" y="3.25" width="2.5" height="2.5" as="geometry" />
        </mxCell>
        <mxCell id="9eh16xiQdjSHdPkHuFP6-695" value="" style="rounded=0;whiteSpace=wrap;html=1;strokeColor=#333333;fillColor=#222222;strokeWidth=0.5;movable=1;resizable=1;rotatable=1;deletable=1;editable=1;locked=0;connectable=1;" parent="9eh16xiQdjSHdPkHuFP6-377" vertex="1">
          <mxGeometry x="8.499999999999773" y="0.5" width="2.5" height="2.5" as="geometry" />
        </mxCell>
        <mxCell id="9eh16xiQdjSHdPkHuFP6-696" value="" style="rounded=0;whiteSpace=wrap;html=1;strokeColor=#333333;fillColor=#222222;strokeWidth=0.5;movable=1;resizable=1;rotatable=1;deletable=1;editable=1;locked=0;connectable=1;" parent="9eh16xiQdjSHdPkHuFP6-377" vertex="1">
          <mxGeometry x="8.499999999999773" y="3.25" width="2.5" height="2.5" as="geometry" />
        </mxCell>
        <mxCell id="9eh16xiQdjSHdPkHuFP6-697" value="" style="rounded=0;whiteSpace=wrap;html=1;strokeColor=#333333;fillColor=#222222;strokeWidth=0.5;movable=1;resizable=1;rotatable=1;deletable=1;editable=1;locked=0;connectable=1;" parent="9eh16xiQdjSHdPkHuFP6-377" vertex="1">
          <mxGeometry x="11.249999999999773" y="0.5" width="2.5" height="2.5" as="geometry" />
        </mxCell>
        <mxCell id="9eh16xiQdjSHdPkHuFP6-698" value="" style="rounded=0;whiteSpace=wrap;html=1;strokeColor=#333333;fillColor=#222222;strokeWidth=0.5;movable=1;resizable=1;rotatable=1;deletable=1;editable=1;locked=0;connectable=1;" parent="9eh16xiQdjSHdPkHuFP6-377" vertex="1">
          <mxGeometry x="11.249999999999773" y="3.25" width="2.5" height="2.5" as="geometry" />
        </mxCell>
        <mxCell id="9eh16xiQdjSHdPkHuFP6-699" value="" style="rounded=0;whiteSpace=wrap;html=1;strokeColor=#333333;fillColor=#222222;strokeWidth=0.5;movable=1;resizable=1;rotatable=1;deletable=1;editable=1;locked=0;connectable=1;" parent="9eh16xiQdjSHdPkHuFP6-377" vertex="1">
          <mxGeometry x="13.999999999999773" y="0.5" width="2.5" height="2.5" as="geometry" />
        </mxCell>
        <mxCell id="9eh16xiQdjSHdPkHuFP6-700" value="" style="rounded=0;whiteSpace=wrap;html=1;strokeColor=#333333;fillColor=#222222;strokeWidth=0.5;movable=1;resizable=1;rotatable=1;deletable=1;editable=1;locked=0;connectable=1;" parent="9eh16xiQdjSHdPkHuFP6-377" vertex="1">
          <mxGeometry x="13.999999999999773" y="3.25" width="2.5" height="2.5" as="geometry" />
        </mxCell>
        <mxCell id="9eh16xiQdjSHdPkHuFP6-701" value="" style="rounded=0;whiteSpace=wrap;html=1;strokeColor=#333333;fillColor=#222222;strokeWidth=0.5;movable=1;resizable=1;rotatable=1;deletable=1;editable=1;locked=0;connectable=1;" parent="9eh16xiQdjSHdPkHuFP6-377" vertex="1">
          <mxGeometry x="16.749999999999773" y="0.5" width="2.5" height="2.5" as="geometry" />
        </mxCell>
        <mxCell id="9eh16xiQdjSHdPkHuFP6-702" value="" style="rounded=0;whiteSpace=wrap;html=1;strokeColor=#333333;fillColor=#222222;strokeWidth=0.5;movable=1;resizable=1;rotatable=1;deletable=1;editable=1;locked=0;connectable=1;" parent="9eh16xiQdjSHdPkHuFP6-377" vertex="1">
          <mxGeometry x="16.749999999999773" y="3.25" width="2.5" height="2.5" as="geometry" />
        </mxCell>
        <mxCell id="9eh16xiQdjSHdPkHuFP6-703" value="" style="rounded=0;whiteSpace=wrap;html=1;strokeColor=#333333;fillColor=#222222;strokeWidth=0.5;movable=1;resizable=1;rotatable=1;deletable=1;editable=1;locked=0;connectable=1;" parent="9eh16xiQdjSHdPkHuFP6-377" vertex="1">
          <mxGeometry x="19.499999999999773" y="0.5" width="2.5" height="2.5" as="geometry" />
        </mxCell>
        <mxCell id="9eh16xiQdjSHdPkHuFP6-704" value="" style="rounded=0;whiteSpace=wrap;html=1;strokeColor=#333333;fillColor=#222222;strokeWidth=0.5;movable=1;resizable=1;rotatable=1;deletable=1;editable=1;locked=0;connectable=1;" parent="9eh16xiQdjSHdPkHuFP6-377" vertex="1">
          <mxGeometry x="19.499999999999773" y="3.25" width="2.5" height="2.5" as="geometry" />
        </mxCell>
        <mxCell id="9eh16xiQdjSHdPkHuFP6-705" value="" style="rounded=0;whiteSpace=wrap;html=1;strokeColor=#333333;fillColor=#222222;strokeWidth=0.5;movable=1;resizable=1;rotatable=1;deletable=1;editable=1;locked=0;connectable=1;" parent="9eh16xiQdjSHdPkHuFP6-377" vertex="1">
          <mxGeometry x="22.249999999999773" y="0.5" width="2.5" height="2.5" as="geometry" />
        </mxCell>
        <mxCell id="9eh16xiQdjSHdPkHuFP6-706" value="" style="rounded=0;whiteSpace=wrap;html=1;strokeColor=#333333;fillColor=#222222;strokeWidth=0.5;movable=1;resizable=1;rotatable=1;deletable=1;editable=1;locked=0;connectable=1;" parent="9eh16xiQdjSHdPkHuFP6-377" vertex="1">
          <mxGeometry x="22.249999999999773" y="3.25" width="2.5" height="2.5" as="geometry" />
        </mxCell>
        <mxCell id="9eh16xiQdjSHdPkHuFP6-707" value="" style="rounded=0;whiteSpace=wrap;html=1;strokeColor=#333333;fillColor=#222222;strokeWidth=0.5;movable=1;resizable=1;rotatable=1;deletable=1;editable=1;locked=0;connectable=1;" parent="9eh16xiQdjSHdPkHuFP6-377" vertex="1">
          <mxGeometry x="24.999999999999773" y="0.5" width="2.5" height="2.5" as="geometry" />
        </mxCell>
        <mxCell id="9eh16xiQdjSHdPkHuFP6-708" value="" style="rounded=0;whiteSpace=wrap;html=1;strokeColor=#333333;fillColor=#222222;strokeWidth=0.5;movable=1;resizable=1;rotatable=1;deletable=1;editable=1;locked=0;connectable=1;" parent="9eh16xiQdjSHdPkHuFP6-377" vertex="1">
          <mxGeometry x="24.999999999999773" y="3.25" width="2.5" height="2.5" as="geometry" />
        </mxCell>
        <mxCell id="9eh16xiQdjSHdPkHuFP6-709" value="" style="rounded=0;whiteSpace=wrap;html=1;strokeColor=#333333;fillColor=#222222;strokeWidth=0.5;movable=1;resizable=1;rotatable=1;deletable=1;editable=1;locked=0;connectable=1;" parent="9eh16xiQdjSHdPkHuFP6-377" vertex="1">
          <mxGeometry x="27.749999999999773" y="0.5" width="2.5" height="2.5" as="geometry" />
        </mxCell>
        <mxCell id="9eh16xiQdjSHdPkHuFP6-710" value="" style="rounded=0;whiteSpace=wrap;html=1;strokeColor=#333333;fillColor=#222222;strokeWidth=0.5;movable=1;resizable=1;rotatable=1;deletable=1;editable=1;locked=0;connectable=1;" parent="9eh16xiQdjSHdPkHuFP6-377" vertex="1">
          <mxGeometry x="27.749999999999773" y="3.25" width="2.5" height="2.5" as="geometry" />
        </mxCell>
        <mxCell id="9eh16xiQdjSHdPkHuFP6-711" value="" style="rounded=0;whiteSpace=wrap;html=1;strokeColor=#333333;fillColor=#222222;strokeWidth=0.5;movable=1;resizable=1;rotatable=1;deletable=1;editable=1;locked=0;connectable=1;" parent="9eh16xiQdjSHdPkHuFP6-377" vertex="1">
          <mxGeometry x="30.499999999999773" y="0.5" width="2.5" height="2.5" as="geometry" />
        </mxCell>
        <mxCell id="9eh16xiQdjSHdPkHuFP6-712" value="" style="rounded=0;whiteSpace=wrap;html=1;strokeColor=#333333;fillColor=#222222;strokeWidth=0.5;movable=1;resizable=1;rotatable=1;deletable=1;editable=1;locked=0;connectable=1;" parent="9eh16xiQdjSHdPkHuFP6-377" vertex="1">
          <mxGeometry x="30.499999999999773" y="3.25" width="2.5" height="2.5" as="geometry" />
        </mxCell>
        <mxCell id="9eh16xiQdjSHdPkHuFP6-713" value="" style="rounded=0;whiteSpace=wrap;html=1;strokeColor=#333333;fillColor=#222222;strokeWidth=0.5;movable=1;resizable=1;rotatable=1;deletable=1;editable=1;locked=0;connectable=1;" parent="9eh16xiQdjSHdPkHuFP6-377" vertex="1">
          <mxGeometry x="33.24999999999977" y="0.5" width="2.5" height="2.5" as="geometry" />
        </mxCell>
        <mxCell id="9eh16xiQdjSHdPkHuFP6-714" value="" style="rounded=0;whiteSpace=wrap;html=1;strokeColor=#333333;fillColor=#222222;strokeWidth=0.5;movable=1;resizable=1;rotatable=1;deletable=1;editable=1;locked=0;connectable=1;" parent="9eh16xiQdjSHdPkHuFP6-377" vertex="1">
          <mxGeometry x="33.24999999999977" y="3.25" width="2.5" height="2.5" as="geometry" />
        </mxCell>
        <mxCell id="9eh16xiQdjSHdPkHuFP6-715" value="" style="rounded=0;whiteSpace=wrap;html=1;strokeColor=#333333;fillColor=#222222;strokeWidth=0.5;movable=1;resizable=1;rotatable=1;deletable=1;editable=1;locked=0;connectable=1;" parent="9eh16xiQdjSHdPkHuFP6-377" vertex="1">
          <mxGeometry x="35.99999999999977" y="0.5" width="2.5" height="2.5" as="geometry" />
        </mxCell>
        <mxCell id="9eh16xiQdjSHdPkHuFP6-716" value="" style="rounded=0;whiteSpace=wrap;html=1;strokeColor=#333333;fillColor=#222222;strokeWidth=0.5;movable=1;resizable=1;rotatable=1;deletable=1;editable=1;locked=0;connectable=1;" parent="9eh16xiQdjSHdPkHuFP6-377" vertex="1">
          <mxGeometry x="35.99999999999977" y="3.25" width="2.5" height="2.5" as="geometry" />
        </mxCell>
        <mxCell id="9eh16xiQdjSHdPkHuFP6-717" value="" style="rounded=0;whiteSpace=wrap;html=1;strokeColor=#333333;fillColor=#222222;strokeWidth=0.5;movable=1;resizable=1;rotatable=1;deletable=1;editable=1;locked=0;connectable=1;" parent="9eh16xiQdjSHdPkHuFP6-377" vertex="1">
          <mxGeometry x="38.74999999999977" y="0.5" width="2.5" height="2.5" as="geometry" />
        </mxCell>
        <mxCell id="9eh16xiQdjSHdPkHuFP6-718" value="" style="rounded=0;whiteSpace=wrap;html=1;strokeColor=#333333;fillColor=#222222;strokeWidth=0.5;movable=1;resizable=1;rotatable=1;deletable=1;editable=1;locked=0;connectable=1;" parent="9eh16xiQdjSHdPkHuFP6-377" vertex="1">
          <mxGeometry x="38.74999999999977" y="3.25" width="2.5" height="2.5" as="geometry" />
        </mxCell>
        <mxCell id="9eh16xiQdjSHdPkHuFP6-719" value="" style="rounded=0;whiteSpace=wrap;html=1;strokeColor=#333333;fillColor=#222222;strokeWidth=0.5;movable=1;resizable=1;rotatable=1;deletable=1;editable=1;locked=0;connectable=1;" parent="9eh16xiQdjSHdPkHuFP6-377" vertex="1">
          <mxGeometry x="41.49999999999977" y="0.5" width="2.5" height="2.5" as="geometry" />
        </mxCell>
        <mxCell id="9eh16xiQdjSHdPkHuFP6-720" value="" style="rounded=0;whiteSpace=wrap;html=1;strokeColor=#333333;fillColor=#222222;strokeWidth=0.5;movable=1;resizable=1;rotatable=1;deletable=1;editable=1;locked=0;connectable=1;" parent="9eh16xiQdjSHdPkHuFP6-377" vertex="1">
          <mxGeometry x="41.44999999999982" y="3.25" width="2.5" height="2.5" as="geometry" />
        </mxCell>
        <mxCell id="9eh16xiQdjSHdPkHuFP6-721" value="" style="rounded=0;whiteSpace=wrap;html=1;strokeColor=#333333;fillColor=#222222;strokeWidth=0.5;movable=1;resizable=1;rotatable=1;deletable=1;editable=1;locked=0;connectable=1;" parent="9eh16xiQdjSHdPkHuFP6-377" vertex="1">
          <mxGeometry x="44.24999999999977" y="0.5" width="2.5" height="2.5" as="geometry" />
        </mxCell>
        <mxCell id="9eh16xiQdjSHdPkHuFP6-722" value="" style="rounded=0;whiteSpace=wrap;html=1;strokeColor=#333333;fillColor=#222222;strokeWidth=0.5;movable=1;resizable=1;rotatable=1;deletable=1;editable=1;locked=0;connectable=1;" parent="9eh16xiQdjSHdPkHuFP6-377" vertex="1">
          <mxGeometry x="44.24999999999977" y="3.25" width="2.5" height="2.5" as="geometry" />
        </mxCell>
        <mxCell id="9eh16xiQdjSHdPkHuFP6-723" value="" style="rounded=0;whiteSpace=wrap;html=1;strokeColor=#333333;fillColor=#222222;strokeWidth=0.5;movable=1;resizable=1;rotatable=1;deletable=1;editable=1;locked=0;connectable=1;" parent="9eh16xiQdjSHdPkHuFP6-377" vertex="1">
          <mxGeometry x="46.99999999999977" y="0.5" width="2.5" height="2.5" as="geometry" />
        </mxCell>
        <mxCell id="9eh16xiQdjSHdPkHuFP6-724" value="" style="rounded=0;whiteSpace=wrap;html=1;strokeColor=#333333;fillColor=#222222;strokeWidth=0.5;movable=1;resizable=1;rotatable=1;deletable=1;editable=1;locked=0;connectable=1;" parent="9eh16xiQdjSHdPkHuFP6-377" vertex="1">
          <mxGeometry x="46.99999999999977" y="3.25" width="2.5" height="2.5" as="geometry" />
        </mxCell>
        <mxCell id="9eh16xiQdjSHdPkHuFP6-725" value="" style="rounded=0;whiteSpace=wrap;html=1;strokeColor=none;fillColor=#333333;strokeWidth=0.5;container=0;movable=1;resizable=1;rotatable=1;deletable=1;editable=1;locked=0;connectable=1;" parent="9eh16xiQdjSHdPkHuFP6-377" vertex="1">
          <mxGeometry x="51.5" y="0.25" width="28" height="5.75" as="geometry" />
        </mxCell>
        <mxCell id="9eh16xiQdjSHdPkHuFP6-726" value="" style="rounded=0;whiteSpace=wrap;html=1;strokeColor=#001DBC;fillColor=#333333;strokeWidth=0.2;container=0;fontColor=#ffffff;movable=1;resizable=1;rotatable=1;deletable=1;editable=1;locked=0;connectable=1;" parent="9eh16xiQdjSHdPkHuFP6-377" vertex="1">
          <mxGeometry x="52" y="1" width="27" height="4.5" as="geometry" />
        </mxCell>
        <mxCell id="9eh16xiQdjSHdPkHuFP6-727" value="" style="ellipse;whiteSpace=wrap;html=1;aspect=fixed;strokeColor=none;fillColor=#60a917;fontColor=#ffffff;movable=1;resizable=1;rotatable=1;deletable=1;editable=1;locked=0;connectable=1;" parent="9eh16xiQdjSHdPkHuFP6-377" vertex="1">
          <mxGeometry x="57.5" y="3.5" width="1.5" height="1.5" as="geometry" />
        </mxCell>
        <mxCell id="9eh16xiQdjSHdPkHuFP6-728" value="" style="ellipse;whiteSpace=wrap;html=1;aspect=fixed;strokeColor=none;fillColor=#0050ef;fontColor=#ffffff;movable=1;resizable=1;rotatable=1;deletable=1;editable=1;locked=0;connectable=1;" parent="9eh16xiQdjSHdPkHuFP6-377" vertex="1">
          <mxGeometry x="59.25" y="3.5" width="1.5" height="1.5" as="geometry" />
        </mxCell>
        <mxCell id="9eh16xiQdjSHdPkHuFP6-729" value="" style="ellipse;whiteSpace=wrap;html=1;aspect=fixed;strokeColor=none;fillColor=#0050ef;fontColor=#ffffff;movable=1;resizable=1;rotatable=1;deletable=1;editable=1;locked=0;connectable=1;" parent="9eh16xiQdjSHdPkHuFP6-377" vertex="1">
          <mxGeometry x="61" y="3.5" width="1.5" height="1.5" as="geometry" />
        </mxCell>
        <mxCell id="9eh16xiQdjSHdPkHuFP6-730" value="" style="ellipse;whiteSpace=wrap;html=1;aspect=fixed;strokeColor=none;fillColor=#0050ef;fontColor=#ffffff;movable=1;resizable=1;rotatable=1;deletable=1;editable=1;locked=0;connectable=1;" parent="9eh16xiQdjSHdPkHuFP6-377" vertex="1">
          <mxGeometry x="62.75" y="3.5" width="1.5" height="1.5" as="geometry" />
        </mxCell>
        <mxCell id="9eh16xiQdjSHdPkHuFP6-731" value="" style="ellipse;whiteSpace=wrap;html=1;aspect=fixed;strokeColor=none;fillColor=#a20025;fontColor=#ffffff;movable=1;resizable=1;rotatable=1;deletable=1;editable=1;locked=0;connectable=1;" parent="9eh16xiQdjSHdPkHuFP6-377" vertex="1">
          <mxGeometry x="66.25" y="3.5" width="1.5" height="1.5" as="geometry" />
        </mxCell>
        <mxCell id="9eh16xiQdjSHdPkHuFP6-732" value="" style="ellipse;whiteSpace=wrap;html=1;aspect=fixed;strokeColor=none;fillColor=#0050ef;fontColor=#ffffff;movable=1;resizable=1;rotatable=1;deletable=1;editable=1;locked=0;connectable=1;" parent="9eh16xiQdjSHdPkHuFP6-377" vertex="1">
          <mxGeometry x="64.5" y="3.5" width="1.5" height="1.5" as="geometry" />
        </mxCell>
        <mxCell id="9eh16xiQdjSHdPkHuFP6-733" value="" style="ellipse;whiteSpace=wrap;html=1;aspect=fixed;strokeColor=none;fillColor=#0050ef;fontColor=#ffffff;movable=1;resizable=1;rotatable=1;deletable=1;editable=1;locked=0;connectable=1;" parent="9eh16xiQdjSHdPkHuFP6-377" vertex="1">
          <mxGeometry x="55" y="3" width="2" height="2" as="geometry" />
        </mxCell>
        <mxCell id="9eh16xiQdjSHdPkHuFP6-734" value="" style="ellipse;whiteSpace=wrap;html=1;aspect=fixed;strokeColor=none;fillColor=#0050ef;fontColor=#ffffff;movable=1;resizable=1;rotatable=1;deletable=1;editable=1;locked=0;connectable=1;" parent="9eh16xiQdjSHdPkHuFP6-377" vertex="1">
          <mxGeometry x="52.5" y="3" width="2" height="2" as="geometry" />
        </mxCell>
        <mxCell id="9eh16xiQdjSHdPkHuFP6-735" value="" style="group;movable=1;resizable=1;rotatable=1;deletable=1;editable=1;locked=0;connectable=1;" parent="9eh16xiQdjSHdPkHuFP6-377" vertex="1" connectable="0">
          <mxGeometry x="73.5" y="3" width="5" height="2" as="geometry" />
        </mxCell>
        <mxCell id="9eh16xiQdjSHdPkHuFP6-736" value="" style="rounded=0;whiteSpace=wrap;html=1;strokeColor=#aaaaaa;fillColor=#222222;strokeWidth=0.1;movable=1;resizable=1;rotatable=1;deletable=1;editable=1;locked=0;connectable=1;" parent="9eh16xiQdjSHdPkHuFP6-735" vertex="1">
          <mxGeometry width="5" height="2" as="geometry" />
        </mxCell>
        <mxCell id="9eh16xiQdjSHdPkHuFP6-737" value="" style="rounded=0;whiteSpace=wrap;html=1;strokeColor=none;fillColor=#0050ef;strokeWidth=0.5;fontColor=#ffffff;movable=1;resizable=1;rotatable=1;deletable=1;editable=1;locked=0;connectable=1;" parent="9eh16xiQdjSHdPkHuFP6-735" vertex="1">
          <mxGeometry x="0.5" y="0.5" width="4" height="0.5" as="geometry" />
        </mxCell>
        <mxCell id="9eh16xiQdjSHdPkHuFP6-738" value="" style="sketch=0;aspect=fixed;pointerEvents=1;shadow=0;dashed=0;html=1;strokeColor=none;labelPosition=center;verticalLabelPosition=bottom;verticalAlign=top;align=center;fillColor=#FFFFFF;shape=mxgraph.mscae.enterprise.usb;movable=1;resizable=1;rotatable=1;deletable=1;editable=1;locked=0;connectable=1;" parent="9eh16xiQdjSHdPkHuFP6-377" vertex="1">
          <mxGeometry x="69.59999999999991" y="1.5" width="2.17" height="1" as="geometry" />
        </mxCell>
        <mxCell id="9eh16xiQdjSHdPkHuFP6-739" value="" style="sketch=0;aspect=fixed;pointerEvents=1;shadow=0;dashed=0;html=1;strokeColor=none;labelPosition=center;verticalLabelPosition=bottom;verticalAlign=top;align=center;fillColor=#FFFFFF;shape=mxgraph.mscae.enterprise.usb;movable=1;resizable=1;rotatable=1;deletable=1;editable=1;locked=0;connectable=1;" parent="9eh16xiQdjSHdPkHuFP6-377" vertex="1">
          <mxGeometry x="74.91999999999985" y="1.5" width="2.17" height="1" as="geometry" />
        </mxCell>
        <mxCell id="9eh16xiQdjSHdPkHuFP6-740" value="" style="sketch=0;html=1;aspect=fixed;strokeColor=none;shadow=0;fillColor=#FFFFFF;verticalAlign=top;labelPosition=center;verticalLabelPosition=bottom;shape=mxgraph.gcp2.a7_power;gradientColor=none;movable=1;resizable=1;rotatable=1;deletable=1;editable=1;locked=0;connectable=1;" parent="9eh16xiQdjSHdPkHuFP6-377" vertex="1">
          <mxGeometry x="53" y="1.5" width="1" height="1" as="geometry" />
        </mxCell>
        <mxCell id="9eh16xiQdjSHdPkHuFP6-741" value="" style="verticalLabelPosition=bottom;shadow=0;dashed=0;align=center;html=1;verticalAlign=top;shape=mxgraph.electrical.radio.loop_antenna;strokeColor=default;fillColor=none;strokeWidth=0.1;rotation=-180;movable=1;resizable=1;rotatable=1;deletable=1;editable=1;locked=0;connectable=1;" parent="9eh16xiQdjSHdPkHuFP6-377" vertex="1">
          <mxGeometry x="55.50000000000023" y="1.5" width="1" height="1" as="geometry" />
        </mxCell>
        <mxCell id="9eh16xiQdjSHdPkHuFP6-742" value="" style="strokeWidth=0.1;html=1;shape=mxgraph.flowchart.database;whiteSpace=wrap;strokeColor=default;fillColor=none;movable=1;resizable=1;rotatable=1;deletable=1;editable=1;locked=0;connectable=1;" parent="9eh16xiQdjSHdPkHuFP6-377" vertex="1">
          <mxGeometry x="59.5" y="1.5" width="1" height="1" as="geometry" />
        </mxCell>
        <mxCell id="9eh16xiQdjSHdPkHuFP6-743" value="" style="sketch=0;pointerEvents=1;shadow=0;dashed=0;html=1;strokeColor=none;fillColor=#FFFFFF;labelPosition=center;verticalLabelPosition=bottom;verticalAlign=top;align=center;outlineConnect=0;shape=mxgraph.vvd.infrastructure;movable=1;resizable=1;rotatable=1;deletable=1;editable=1;locked=0;connectable=1;" parent="9eh16xiQdjSHdPkHuFP6-377" vertex="1">
          <mxGeometry x="61.25" y="1.5" width="1" height="1" as="geometry" />
        </mxCell>
        <mxCell id="9eh16xiQdjSHdPkHuFP6-744" value="" style="sketch=0;pointerEvents=1;shadow=0;dashed=0;html=1;strokeColor=none;fillColor=#FFFFFF;labelPosition=center;verticalLabelPosition=bottom;verticalAlign=top;align=center;outlineConnect=0;shape=mxgraph.vvd.infrastructure;movable=1;resizable=1;rotatable=1;deletable=1;editable=1;locked=0;connectable=1;" parent="9eh16xiQdjSHdPkHuFP6-377" vertex="1">
          <mxGeometry x="63" y="1.5" width="1" height="1" as="geometry" />
        </mxCell>
        <mxCell id="9eh16xiQdjSHdPkHuFP6-745" value="" style="sketch=0;pointerEvents=1;shadow=0;dashed=0;html=1;strokeColor=none;fillColor=#FFFFFF;labelPosition=center;verticalLabelPosition=bottom;verticalAlign=top;align=center;outlineConnect=0;shape=mxgraph.vvd.infrastructure;movable=1;resizable=1;rotatable=1;deletable=1;editable=1;locked=0;connectable=1;" parent="9eh16xiQdjSHdPkHuFP6-377" vertex="1">
          <mxGeometry x="64.75" y="1.5" width="1" height="1" as="geometry" />
        </mxCell>
        <mxCell id="9eh16xiQdjSHdPkHuFP6-746" value="" style="triangle;whiteSpace=wrap;html=1;rotation=-90;fillColor=none;strokeWidth=0.1;movable=1;resizable=1;rotatable=1;deletable=1;editable=1;locked=0;connectable=1;" parent="9eh16xiQdjSHdPkHuFP6-377" vertex="1">
          <mxGeometry x="66.5" y="1.5" width="1" height="1" as="geometry" />
        </mxCell>
        <mxCell id="9eh16xiQdjSHdPkHuFP6-747" value="" style="sketch=0;html=1;aspect=fixed;strokeColor=default;shadow=0;fillColor=none;verticalAlign=top;labelPosition=center;verticalLabelPosition=bottom;shape=mxgraph.gcp2.a7_power;gradientColor=none;strokeWidth=0.05;movable=1;resizable=1;rotatable=1;deletable=1;editable=1;locked=0;connectable=1;" parent="9eh16xiQdjSHdPkHuFP6-377" vertex="1">
          <mxGeometry x="57.75" y="1.5" width="1" height="1" as="geometry" />
        </mxCell>
        <mxCell id="9eh16xiQdjSHdPkHuFP6-748" value="" style="group;movable=1;resizable=1;rotatable=1;deletable=1;editable=1;locked=0;connectable=1;" parent="9eh16xiQdjSHdPkHuFP6-377" vertex="1" connectable="0">
          <mxGeometry x="68.18000000000006" y="3" width="5" height="2" as="geometry" />
        </mxCell>
        <mxCell id="9eh16xiQdjSHdPkHuFP6-749" value="" style="rounded=0;whiteSpace=wrap;html=1;strokeColor=#aaaaaa;fillColor=#222222;strokeWidth=0.1;movable=1;resizable=1;rotatable=1;deletable=1;editable=1;locked=0;connectable=1;" parent="9eh16xiQdjSHdPkHuFP6-748" vertex="1">
          <mxGeometry width="5" height="2" as="geometry" />
        </mxCell>
        <mxCell id="9eh16xiQdjSHdPkHuFP6-750" value="" style="rounded=0;whiteSpace=wrap;html=1;strokeColor=none;fillColor=#0050ef;strokeWidth=0.5;fontColor=#ffffff;movable=1;resizable=1;rotatable=1;deletable=1;editable=1;locked=0;connectable=1;" parent="9eh16xiQdjSHdPkHuFP6-748" vertex="1">
          <mxGeometry x="0.5" y="0.5" width="4" height="0.5" as="geometry" />
        </mxCell>
      </root>
    </mxGraphModel>
  </diagram>
</mxfile>
